ISO-10303-21;
HEADER;
FILE_DESCRIPTION (( 'STEP AP214' ),
    '1' );
FILE_NAME ('Manual Button_Taller.STEP',
    '2026-05-10T16:57:46',
    ( '' ),
    ( '' ),
    'SwSTEP 2.0',
    'SolidWorks 2026',
    '' );
FILE_SCHEMA (( 'AUTOMOTIVE_DESIGN' ));
ENDSEC;

DATA;
#1 = DIRECTION ( 'NONE',  ( -0.7071067811865475727, 0.000000000000000000, -0.7071067811865475727 ) ) ;
#2 = EDGE_CURVE ( 'NONE', #313, #81, #247, .T. ) ;
#3 = ORIENTED_EDGE ( 'NONE', *, *, #197, .T. ) ;
#4 = CARTESIAN_POINT ( 'NONE',  ( 4.439339828219999617, -3.560660171780000383, 5.049999999999999822 ) ) ;
#5 = CARTESIAN_POINT ( 'NONE',  ( 2.125000000000000000, 0.000000000000000000, 0.000000000000000000 ) ) ;
#6 = VERTEX_POINT ( 'NONE', #899 ) ;
#7 = VECTOR ( 'NONE', #188, 1000.000000000000000 ) ;
#8 = AXIS2_PLACEMENT_3D ( 'NONE', #156, #853, #173 ) ;
#9 = CARTESIAN_POINT ( 'NONE',  ( -2.500000000000000000, 4.000000000000000000, 5.049999999999999822 ) ) ;
#10 = AXIS2_PLACEMENT_3D ( 'NONE', #867, #292, #1076 ) ;
#11 = ORIENTED_EDGE ( 'NONE', *, *, #530, .T. ) ;
#12 = DIRECTION ( 'NONE',  ( 0.5000000000000167644, 0.5000000000000168754, -0.7071067811865237029 ) ) ;
#13 = CARTESIAN_POINT ( 'NONE',  ( 0.000000000000000000, 0.000000000000000000, 0.000000000000000000 ) ) ;
#14 = STYLED_ITEM ( 'NONE', ( #829 ), #908 ) ;
#15 = VERTEX_POINT ( 'NONE', #707 ) ;
#16 = CIRCLE ( 'NONE', #79, 1.500000000000000000 ) ;
#17 = DIRECTION ( 'NONE',  ( -1.000000000000000000, 0.000000000000000000, 0.000000000000000000 ) ) ;
#18 = LINE ( 'NONE', #317, #54 ) ;
#19 = FACE_OUTER_BOUND ( 'NONE', #199, .T. ) ;
#20 = ORIENTED_EDGE ( 'NONE', *, *, #371, .T. ) ;
#21 = CARTESIAN_POINT ( 'NONE',  ( -4.000000000000000000, 2.500000000000000000, 9.000000000000000000 ) ) ;
#22 = DIRECTION ( 'NONE',  ( 0.000000000000000000, 0.000000000000000000, -1.000000000000000000 ) ) ;
#23 = DIRECTION ( 'NONE',  ( -0.4999999999999994449, 0.4999999999999984457, 0.7071067811865490160 ) ) ;
#24 = EDGE_CURVE ( 'NONE', #363, #757, #1127, .T. ) ;
#25 = LINE ( 'NONE', #338, #725 ) ;
#26 = EDGE_LOOP ( 'NONE', ( #484, #500, #1100, #308 ) ) ;
#27 = CARTESIAN_POINT ( 'NONE',  ( 8.141421352916999865, 2.262741703082000289, -2.519776979662999779E-11 ) ) ;
#28 = EDGE_CURVE ( 'NONE', #767, #98, #57, .T. ) ;
#29 = CARTESIAN_POINT ( 'NONE',  ( -5.700004499721999629, -2.499999994407000159, 4.499721761632000019E-06 ) ) ;
#30 = DIRECTION ( 'NONE',  ( 0.000000000000000000, 0.000000000000000000, -1.000000000000000000 ) ) ;
#31 = AXIS2_PLACEMENT_3D ( 'NONE', #160, #930, #76 ) ;
#32 = EDGE_CURVE ( 'NONE', #770, #270, #1024, .T. ) ;
#33 = DIRECTION ( 'NONE',  ( 0.000000000000000000, 0.000000000000000000, -1.000000000000000000 ) ) ;
#34 = ORIENTED_EDGE ( 'NONE', *, *, #69, .T. ) ;
#35 = CARTESIAN_POINT ( 'NONE',  ( -5.999999999952000174, -2.499999994096000044, 0.2999999999522999783 ) ) ;
#36 = PLANE ( 'NONE',  #774 ) ;
#37 = CARTESIAN_POINT ( 'NONE',  ( 8.353553390592999506, -2.474873734152999827, 5.049999999999999822 ) ) ;
#38 = ORIENTED_EDGE ( 'NONE', *, *, #1118, .T. ) ;
#39 = CYLINDRICAL_SURFACE ( 'NONE', #789, 3.500000000000000000 ) ;
#40 = FILL_AREA_STYLE_COLOUR ( '', #184 ) ;
#41 = CARTESIAN_POINT ( 'NONE',  ( 6.828427124745999777, -4.000000000000000000, 5.049999999999999822 ) ) ;
#42 = B_SPLINE_CURVE_WITH_KNOTS ( 'NONE', 3,
 ( #1245, #833, #1226, #351, #735 ),
 .UNSPECIFIED., .F., .F.,
 ( 4, 1, 4 ),
 ( 0.000000000000000000, 0.5000000000000000000, 1.000000000000000000 ),
 .UNSPECIFIED. ) ;
#43 = ORIENTED_EDGE ( 'NONE', *, *, #515, .T. ) ;
#44 = DIRECTION ( 'NONE',  ( -1.000000000000000000, 0.000000000000000000, 0.000000000000000000 ) ) ;
#45 = CARTESIAN_POINT ( 'NONE',  ( -2.500000000000000000, -2.500000000000000000, 12.00000000000000000 ) ) ;
#46 = FACE_BOUND ( 'NONE', #393, .T. ) ;
#47 = CIRCLE ( 'NONE', #31, 1.500000000000000000 ) ;
#48 = CARTESIAN_POINT ( 'NONE',  ( 8.353553390592999506, -2.474873734152999827, 0.2999999999999999889 ) ) ;
#49 = VERTEX_POINT ( 'NONE', #117 ) ;
#50 = VECTOR ( 'NONE', #389, 1000.000000000000000 ) ;
#51 = DIRECTION ( 'NONE',  ( 1.000000000000000000, 8.673617379884035472E-16, 0.000000000000000000 ) ) ;
#52 = CARTESIAN_POINT ( 'NONE',  ( 0.000000000000000000, 0.000000000000000000, 1.000000000000000000 ) ) ;
#53 = APPLICATION_CONTEXT ( 'automotive_design' ) ;
#54 = VECTOR ( 'NONE', #976, 1000.000000000000000 ) ;
#55 = AXIS2_PLACEMENT_3D ( 'NONE', #508, #1077, #895 ) ;
#56 = EDGE_CURVE ( 'NONE', #442, #840, #1219, .T. ) ;
#57 = CIRCLE ( 'NONE', #229, 1.824999999999999956 ) ;
#58 = CYLINDRICAL_SURFACE ( 'NONE', #621, 3.500000000000000000 ) ;
#59 = ORIENTED_EDGE ( 'NONE', *, *, #710, .F. ) ;
#60 = EDGE_CURVE ( 'NONE', #270, #695, #820, .T. ) ;
#61 = DIRECTION ( 'NONE',  ( -0.7071067811865474617, 0.7071067811865474617, 0.000000000000000000 ) ) ;
#62 = DIRECTION ( 'NONE',  ( -1.000000000000000000, 0.000000000000000000, 0.000000000000000000 ) ) ;
#63 = ORIENTED_EDGE ( 'NONE', *, *, #1071, .T. ) ;
#64 = DIRECTION ( 'NONE',  ( -1.000000000000000000, 0.000000000000000000, 0.000000000000000000 ) ) ;
#65 = VERTEX_POINT ( 'NONE', #801 ) ;
#66 = DIRECTION ( 'NONE',  ( 0.7071067811865475727, -0.7071067811865475727, 0.000000000000000000 ) ) ;
#67 = CARTESIAN_POINT ( 'NONE',  ( 0.000000000000000000, 0.000000000000000000, 0.2999999999999999889 ) ) ;
#68 = VERTEX_POINT ( 'NONE', #1191 ) ;
#69 = EDGE_CURVE ( 'NONE', #879, #791, #589, .T. ) ;
#70 = EDGE_CURVE ( 'NONE', #387, #784, #164, .T. ) ;
#71 = CIRCLE ( 'NONE', #427, 0.9000000000000023537 ) ;
#72 = FACE_OUTER_BOUND ( 'NONE', #1207, .T. ) ;
#73 = CIRCLE ( 'NONE', #542, 1.500000000000000000 ) ;
#74 = ORIENTED_EDGE ( 'NONE', *, *, #75, .F. ) ;
#75 = EDGE_CURVE ( 'NONE', #180, #15, #673, .T. ) ;
#76 = DIRECTION ( 'NONE',  ( 0.000000000000000000, -1.000000000000000000, 0.000000000000000000 ) ) ;
#77 = DIRECTION ( 'NONE',  ( 0.000000000000000000, 0.000000000000000000, -1.000000000000000000 ) ) ;
#78 = ORIENTED_EDGE ( 'NONE', *, *, #167, .T. ) ;
#79 = AXIS2_PLACEMENT_3D ( 'NONE', #375, #1038, #1142 ) ;
#80 = CARTESIAN_POINT ( 'NONE',  ( 6.515075759507894304, 0.6363961030678946251, 12.00000000000000000 ) ) ;
#81 = VERTEX_POINT ( 'NONE', #1151 ) ;
#82 = DIRECTION ( 'NONE',  ( 0.000000000000000000, 0.000000000000000000, 1.000000000000000000 ) ) ;
#83 = DIRECTION ( 'NONE',  ( 0.000000000000000000, 0.000000000000000000, 1.000000000000000000 ) ) ;
#84 = ORIENTED_EDGE ( 'NONE', *, *, #28, .F. ) ;
#85 = EDGE_CURVE ( 'NONE', #180, #377, #73, .T. ) ;
#86 = ORIENTED_EDGE ( 'NONE', *, *, #848, .F. ) ;
#87 = FACE_OUTER_BOUND ( 'NONE', #861, .T. ) ;
#88 = CARTESIAN_POINT ( 'NONE',  ( -5.662277660168000715, -4.000000000000000000, 0.2999999999999999889 ) ) ;
#89 = CARTESIAN_POINT ( 'NONE',  ( 0.000000000000000000, -1.974999999600000278, 0.1500000004003000098 ) ) ;
#90 = ORIENTED_EDGE ( 'NONE', *, *, #1196, .T. ) ;
#91 = VECTOR ( 'NONE', #906, 1000.000000000000000 ) ;
#92 = LINE ( 'NONE', #4, #636 ) ;
#93 = DIRECTION ( 'NONE',  ( 0.000000000000000000, 0.000000000000000000, -1.000000000000000000 ) ) ;
#94 = VERTEX_POINT ( 'NONE', #80 ) ;
#95 = DIRECTION ( 'NONE',  ( 0.000000000000000000, -0.7071067811864425456, -0.7071067811866525998 ) ) ;
#96 = VECTOR ( 'NONE', #142, 1000.000000000000000 ) ;
#97 = EDGE_CURVE ( 'NONE', #671, #377, #1047, .T. ) ;
#98 = VERTEX_POINT ( 'NONE', #372 ) ;
#99 = DIRECTION ( 'NONE',  ( 0.000000000000000000, 0.000000000000000000, -1.000000000000000000 ) ) ;
#100 = CARTESIAN_POINT ( 'NONE',  ( 8.000000000000000000, 0.000000000000000000, 0.000000000000000000 ) ) ;
#101 = VERTEX_POINT ( 'NONE', #628 ) ;
#102 = ADVANCED_FACE ( 'NONE', ( #72 ), #1218, .T. ) ;
#103 = CARTESIAN_POINT ( 'NONE',  ( 6.939339828220000506, 1.060660171779999938, 11.39999999999999858 ) ) ;
#104 = ORIENTED_EDGE ( 'NONE', *, *, #125, .F. ) ;
#105 = CARTESIAN_POINT ( 'NONE',  ( 0.000000000000000000, 0.000000000000000000, 0.1500000004003000098 ) ) ;
#106 = CARTESIAN_POINT ( 'NONE',  ( -2.500000000000000000, -2.500000000000000000, 5.049999999999999822 ) ) ;
#107 = ORIENTED_EDGE ( 'NONE', *, *, #450, .F. ) ;
#108 = CARTESIAN_POINT ( 'NONE',  ( 6.939339828220000506, -1.060660171779999938, 5.049999999999999822 ) ) ;
#109 = ORIENTED_EDGE ( 'NONE', *, *, #75, .T. ) ;
#110 = FACE_OUTER_BOUND ( 'NONE', #1067, .T. ) ;
#111 = CARTESIAN_POINT ( 'NONE',  ( 0.000000000000000000, -2.125000000000255795, 0.000000000000000000 ) ) ;
#112 = ORIENTED_EDGE ( 'NONE', *, *, #56, .F. ) ;
#113 = VECTOR ( 'NONE', #526, 1000.000000000000000 ) ;
#114 = DIRECTION ( 'NONE',  ( 0.7071067811865474617, -8.744157069164583384E-12, 0.7071067811865474617 ) ) ;
#115 = FACE_OUTER_BOUND ( 'NONE', #290, .T. ) ;
#116 = VECTOR ( 'NONE', #441, 1000.000000000000114 ) ;
#117 = CARTESIAN_POINT ( 'NONE',  ( -5.662277660168000715, -4.000000000000000000, 5.049999999999999822 ) ) ;
#118 = CARTESIAN_POINT ( 'NONE',  ( 1.824999999999999956, 0.000000000000000000, 1.000000000000000000 ) ) ;
#119 = AXIS2_PLACEMENT_3D ( 'NONE', #514, #234, #330 ) ;
#120 = VERTEX_POINT ( 'NONE', #48 ) ;
#121 = VECTOR ( 'NONE', #1154, 1000.000000000000114 ) ;
#122 = DIRECTION ( 'NONE',  ( 0.000000000000000000, 0.000000000000000000, -1.000000000000000000 ) ) ;
#123 = DIRECTION ( 'NONE',  ( -1.000000000000000000, 0.000000000000000000, 0.000000000000000000 ) ) ;
#124 = DIRECTION ( 'NONE',  ( 0.000000000000000000, 0.000000000000000000, 1.000000000000000000 ) ) ;
#125 = EDGE_CURVE ( 'NONE', #803, #817, #756, .T. ) ;
#126 = CARTESIAN_POINT ( 'NONE',  ( 0.000000000000000000, 0.000000000000000000, 0.2999999999999999889 ) ) ;
#127 = DIRECTION ( 'NONE',  ( 0.000000000000000000, 1.000000000000000000, 0.000000000000000000 ) ) ;
#128 = EDGE_LOOP ( 'NONE', ( #668, #195, #532, #237 ) ) ;
#129 = EDGE_CURVE ( 'NONE', #413, #363, #178, .T. ) ;
#130 = LINE ( 'NONE', #35, #1056 ) ;
#131 = DIRECTION ( 'NONE',  ( 0.000000000000000000, 0.000000000000000000, 1.000000000000000000 ) ) ;
#132 = SHAPE_DEFINITION_REPRESENTATION ( #477, #971 ) ;
#133 = DIRECTION ( 'NONE',  ( 0.000000000000000000, 0.000000000000000000, -1.000000000000000000 ) ) ;
#134 = LINE ( 'NONE', #37, #116 ) ;
#135 = EDGE_LOOP ( 'NONE', ( #764, #574 ) ) ;
#136 = FACE_OUTER_BOUND ( 'NONE', #647, .T. ) ;
#137 = CONICAL_SURFACE ( 'NONE', #950, 1.974999999600000278, 0.7853981633972997312 ) ;
#138 = CARTESIAN_POINT ( 'NONE',  ( -5.999999999952000174, -2.499999994096000044, 0.2999999999522999783 ) ) ;
#139 = DIRECTION ( 'NONE',  ( 0.000000000000000000, -1.000000000000000000, 0.000000000000000000 ) ) ;
#140 = CIRCLE ( 'NONE', #1013, 3.500000000000000000 ) ;
#141 = DIRECTION ( 'NONE',  ( 1.000000000000000000, 0.000000000000000000, 0.000000000000000000 ) ) ;
#142 = DIRECTION ( 'NONE',  ( -1.000000000000000000, 0.000000000000000000, 0.000000000000000000 ) ) ;
#143 = ORIENTED_EDGE ( 'NONE', *, *, #969, .T. ) ;
#144 = DIRECTION ( 'NONE',  ( 0.000000000000000000, 0.000000000000000000, -1.000000000000000000 ) ) ;
#145 = CARTESIAN_POINT ( 'NONE',  ( 2.124999999502000136, -1.042324546470000018E-11, 4.983135385809000668E-10 ) ) ;
#146 =( NAMED_UNIT ( * ) PLANE_ANGLE_UNIT ( ) SI_UNIT ( $, .RADIAN. ) );
#147 = ORIENTED_EDGE ( 'NONE', *, *, #1032, .F. ) ;
#148 = DIRECTION ( 'NONE',  ( 0.000000000000000000, 0.000000000000000000, -1.000000000000000000 ) ) ;
#149 =( LENGTH_UNIT ( ) NAMED_UNIT ( * ) SI_UNIT ( .MILLI., .METRE. ) );
#150 = CARTESIAN_POINT ( 'NONE',  ( 0.000000000000000000, 0.000000000000000000, 5.049999999999999822 ) ) ;
#151 = DIRECTION ( 'NONE',  ( 0.000000000000000000, 0.000000000000000000, -1.000000000000000000 ) ) ;
#152 = VERTEX_POINT ( 'NONE', #933 ) ;
#153 = CARTESIAN_POINT ( 'NONE',  ( 0.000000000000000000, 0.000000000000000000, 1.000000000000000000 ) ) ;
#154 = LINE ( 'NONE', #473, #606 ) ;
#155 = EDGE_CURVE ( 'NONE', #784, #208, #563, .T. ) ;
#156 = CARTESIAN_POINT ( 'NONE',  ( -2.500000000000000000, -2.500000000000000000, 0.000000000000000000 ) ) ;
#157 = EDGE_CURVE ( 'NONE', #568, #840, #641, .T. ) ;
#158 = ORIENTED_EDGE ( 'NONE', *, *, #388, .T. ) ;
#159 = VECTOR ( 'NONE', #305, 1000.000000000000000 ) ;
#160 = CARTESIAN_POINT ( 'NONE',  ( -2.500000000000000000, -2.500000000000000000, 5.049999999999999822 ) ) ;
#161 = CARTESIAN_POINT ( 'NONE',  ( 6.704163056033999091, 3.700000000000000178, 0.000000000000000000 ) ) ;
#162 = ORIENTED_EDGE ( 'NONE', *, *, #1165, .F. ) ;
#163 = VECTOR ( 'NONE', #980, 1000.000000000000000 ) ;
#164 = CIRCLE ( 'NONE', #407, 1.500000000000000000 ) ;
#165 = FACE_OUTER_BOUND ( 'NONE', #571, .T. ) ;
#166 = EDGE_LOOP ( 'NONE', ( #1018, #918, #1271, #715 ) ) ;
#167 = EDGE_CURVE ( 'NONE', #442, #101, #266, .T. ) ;
#168 = ADVANCED_FACE ( 'NONE', ( #165 ), #476, .F. ) ;
#169 = PLANE ( 'NONE',  #1197 ) ;
#170 = LINE ( 'NONE', #659, #958 ) ;
#171 = ORIENTED_EDGE ( 'NONE', *, *, #2, .F. ) ;
#172 = ADVANCED_FACE ( 'NONE', ( #459 ), #633, .T. ) ;
#173 = DIRECTION ( 'NONE',  ( -1.000000000000000000, 0.000000000000000000, 0.000000000000000000 ) ) ;
#174 = EDGE_LOOP ( 'NONE', ( #38, #158, #983, #539 ) ) ;
#175 = FACE_OUTER_BOUND ( 'NONE', #26, .T. ) ;
#176 = DIRECTION ( 'NONE',  ( -1.000000000000000000, 0.000000000000000000, 0.000000000000000000 ) ) ;
#177 = ORIENTED_EDGE ( 'NONE', *, *, #844, .T. ) ;
#178 = LINE ( 'NONE', #543, #1159 ) ;
#179 = VECTOR ( 'NONE', #727, 1000.000000000000000 ) ;
#180 = VERTEX_POINT ( 'NONE', #1231 ) ;
#181 = CARTESIAN_POINT ( 'NONE',  ( -6.000000000000000000, 2.500000000000000000, 5.049999999999999822 ) ) ;
#182 = CARTESIAN_POINT ( 'NONE',  ( -6.000000000000000000, -2.500000000000000000, 0.000000000000000000 ) ) ;
#183 = ORIENTED_EDGE ( 'NONE', *, *, #451, .T. ) ;
#184 = COLOUR_RGB ( '',0.7921568627450980005, 0.8196078431372548767, 0.9333333333333333481 ) ;
#185 = MECHANICAL_DESIGN_GEOMETRIC_PRESENTATION_REPRESENTATION (  '', ( #14 ), #325 ) ;
#186 = AXIS2_PLACEMENT_3D ( 'NONE', #67, #1230, #559 ) ;
#187 = ORIENTED_EDGE ( 'NONE', *, *, #1255, .T. ) ;
#188 = DIRECTION ( 'NONE',  ( -0.7071067811705969985, -0.7071067812024980359, 2.248947145589989957E-11 ) ) ;
#189 = CARTESIAN_POINT ( 'NONE',  ( 1.075735931288072322, -6.075735931288072322, 12.00000000000000000 ) ) ;
#190 = VERTEX_POINT ( 'NONE', #948 ) ;
#191 = EDGE_CURVE ( 'NONE', #784, #1213, #470, .T. ) ;
#192 = VERTEX_POINT ( 'NONE', #359 ) ;
#193 = DIRECTION ( 'NONE',  ( -1.000000000000000000, 0.000000000000000000, 0.000000000000000000 ) ) ;
#194 = DIRECTION ( 'NONE',  ( -0.7071067811865474617, 0.7071067811865474617, 0.000000000000000000 ) ) ;
#195 = ORIENTED_EDGE ( 'NONE', *, *, #451, .F. ) ;
#196 = DIRECTION ( 'NONE',  ( 0.000000000000000000, 0.000000000000000000, -1.000000000000000000 ) ) ;
#197 = EDGE_CURVE ( 'NONE', #1168, #843, #538, .T. ) ;
#198 = EDGE_CURVE ( 'NONE', #879, #1200, #42, .T. ) ;
#199 = EDGE_LOOP ( 'NONE', ( #643, #464, #1194, #1065 ) ) ;
#200 = VECTOR ( 'NONE', #731, 1000.000000000000000 ) ;
#201 = DIRECTION ( 'NONE',  ( 0.000000000000000000, -1.000000000000000000, 0.000000000000000000 ) ) ;
#202 = PRODUCT_DEFINITION_CONTEXT ( 'detailed design', #53, 'design' ) ;
#203 = ORIENTED_EDGE ( 'NONE', *, *, #264, .T. ) ;
#204 = PLANE ( 'NONE',  #704 ) ;
#205 = ORIENTED_EDGE ( 'NONE', *, *, #537, .F. ) ;
#206 = FACE_OUTER_BOUND ( 'NONE', #678, .T. ) ;
#207 = ADVANCED_FACE ( 'NONE', ( #1033 ), #58, .T. ) ;
#208 = VERTEX_POINT ( 'NONE', #846 ) ;
#209 = EDGE_CURVE ( 'NONE', #770, #986, #1097, .T. ) ;
#210 = ORIENTED_EDGE ( 'NONE', *, *, #748, .F. ) ;
#211 = PLANE ( 'NONE',  #241 ) ;
#212 = ORIENTED_EDGE ( 'NONE', *, *, #398, .T. ) ;
#213 = LINE ( 'NONE', #966, #452 ) ;
#214 = CARTESIAN_POINT ( 'NONE',  ( -5.498628659928000317, 3.747685066223999772, 0.04768506622409999368 ) ) ;
#215 = ORIENTED_EDGE ( 'NONE', *, *, #32, .F. ) ;
#216 = PRODUCT_DEFINITION_FORMATION_WITH_SPECIFIED_SOURCE ( 'ANY', '', #616, .NOT_KNOWN. ) ;
#217 = ADVANCED_FACE ( 'NONE', ( #968 ), #851, .T. ) ;
#218 = AXIS2_PLACEMENT_3D ( 'NONE', #365, #876, #762 ) ;
#219 = CARTESIAN_POINT ( 'NONE',  ( -2.500000000000000000, 2.500000000000000000, 0.2999999999999999889 ) ) ;
#220 = LINE ( 'NONE', #89, #831 ) ;
#221 = PRESENTATION_LAYER_ASSIGNMENT (  '', '', ( #14 ) ) ;
#222 = EDGE_CURVE ( 'NONE', #1213, #568, #240, .T. ) ;
#223 = CARTESIAN_POINT ( 'NONE',  ( 8.141421352916999865, 2.262741703082000289, -2.519776979662999779E-11 ) ) ;
#224 = AXIS2_PLACEMENT_3D ( 'NONE', #821, #796, #1187 ) ;
#225 = ORIENTED_EDGE ( 'NONE', *, *, #1007, .T. ) ;
#226 = AXIS2_PLACEMENT_3D ( 'NONE', #1235, #759, #176 ) ;
#227 = CARTESIAN_POINT ( 'NONE',  ( -2.500000000000000000, -2.500000000000000000, 11.39999999999999858 ) ) ;
#228 = FILL_AREA_STYLE ('',( #40 ) ) ;
#229 = AXIS2_PLACEMENT_3D ( 'NONE', #126, #1211, #141 ) ;
#230 = DIRECTION ( 'NONE',  ( 0.000000000000000000, -1.000000000000000000, 0.000000000000000000 ) ) ;
#231 = CYLINDRICAL_SURFACE ( 'NONE', #687, 1.500000000000001554 ) ;
#232 = ORIENTED_EDGE ( 'NONE', *, *, #552, .T. ) ;
#233 = CARTESIAN_POINT ( 'NONE',  ( 3.378679656439999679, -4.000000000000000000, 11.39999999999999858 ) ) ;
#234 = DIRECTION ( 'NONE',  ( 0.000000000000000000, 0.000000000000000000, -1.000000000000000000 ) ) ;
#235 = APPLICATION_CONTEXT ( 'automotive_design' ) ;
#236 = FACE_OUTER_BOUND ( 'NONE', #901, .T. ) ;
#237 = ORIENTED_EDGE ( 'NONE', *, *, #209, .F. ) ;
#238 = AXIS2_PLACEMENT_3D ( 'NONE', #938, #558, #374 ) ;
#239 = CARTESIAN_POINT ( 'NONE',  ( -5.662277660168000715, 4.000000000000000000, 5.049999999999999822 ) ) ;
#240 = CIRCLE ( 'NONE', #469, 1.500000000000000000 ) ;
#241 = AXIS2_PLACEMENT_3D ( 'NONE', #420, #1114, #911 ) ;
#242 = ORIENTED_EDGE ( 'NONE', *, *, #732, .T. ) ;
#243 = DIRECTION ( 'NONE',  ( 0.000000000000000000, 1.000000000000000000, 0.000000000000000000 ) ) ;
#244 = VECTOR ( 'NONE', #114, 1000.000000000000114 ) ;
#245 = VECTOR ( 'NONE', #1242, 1000.000000000000000 ) ;
#246 = DIRECTION ( 'NONE',  ( -1.000000000000000000, 0.000000000000000000, 0.000000000000000000 ) ) ;
#247 = CIRCLE ( 'NONE', #836, 0.9000000000000027978 ) ;
#248 = DIRECTION ( 'NONE',  ( 0.000000000000000000, -0.8164965809277076048, 0.5773502691896517103 ) ) ;
#249 = ORIENTED_EDGE ( 'NONE', *, *, #525, .F. ) ;
#250 = DIRECTION ( 'NONE',  ( 0.000000000000000000, -1.000000000000000000, 0.000000000000000000 ) ) ;
#251 = DIRECTION ( 'NONE',  ( 0.000000000000000000, 0.000000000000000000, -1.000000000000000000 ) ) ;
#252 = CARTESIAN_POINT ( 'NONE',  ( 0.000000000000000000, 0.000000000000000000, 0.000000000000000000 ) ) ;
#253 = CARTESIAN_POINT ( 'NONE',  ( -4.000000000000000000, -2.500000000000000000, 11.39999999999999858 ) ) ;
#254 = EDGE_LOOP ( 'NONE', ( #555, #203, #1135, #847, #1059, #34, #693, #353 ) ) ;
#255 = DIRECTION ( 'NONE',  ( 0.000000000000000000, 1.000000000000000000, 0.000000000000000000 ) ) ;
#256 = DIRECTION ( 'NONE',  ( 0.7071067811865475727, 0.7071067811865475727, 0.000000000000000000 ) ) ;
#257 = EDGE_CURVE ( 'NONE', #568, #101, #428, .T. ) ;
#258 = CARTESIAN_POINT ( 'NONE',  ( -2.500000000000000000, 2.500000000000000000, 5.049999999999999822 ) ) ;
#259 = ORIENTED_EDGE ( 'NONE', *, *, #1008, .F. ) ;
#260 = VECTOR ( 'NONE', #196, 1000.000000000000000 ) ;
#261 = DIRECTION ( 'NONE',  ( -1.000000000000000000, 0.000000000000000000, 0.000000000000000000 ) ) ;
#262 = DIRECTION ( 'NONE',  ( -0.000000000000000000, -0.7071067811865497932, -0.7071067811865452413 ) ) ;
#263 = ORIENTED_EDGE ( 'NONE', *, *, #312, .T. ) ;
#264 = EDGE_CURVE ( 'NONE', #1043, #346, #1005, .T. ) ;
#265 = VECTOR ( 'NONE', #753, 1000.000000000000114 ) ;
#266 = LINE ( 'NONE', #742, #722 ) ;
#267 = ORIENTED_EDGE ( 'NONE', *, *, #277, .F. ) ;
#268 = LINE ( 'NONE', #828, #618 ) ;
#269 = FACE_OUTER_BOUND ( 'NONE', #565, .T. ) ;
#270 = VERTEX_POINT ( 'NONE', #603 ) ;
#271 = CARTESIAN_POINT ( 'NONE',  ( -2.500000000000000000, 4.000000000000000000, 9.000000000000000000 ) ) ;
#272 = ORIENTED_EDGE ( 'NONE', *, *, #431, .T. ) ;
#273 = LINE ( 'NONE', #1234, #200 ) ;
#274 = FACE_OUTER_BOUND ( 'NONE', #174, .T. ) ;
#275 = ORIENTED_EDGE ( 'NONE', *, *, #60, .T. ) ;
#276 = AXIS2_PLACEMENT_3D ( 'NONE', #676, #99, #1080 ) ;
#277 = EDGE_CURVE ( 'NONE', #890, #857, #1209, .T. ) ;
#278 = VECTOR ( 'NONE', #453, 1000.000000000000000 ) ;
#279 = ORIENTED_EDGE ( 'NONE', *, *, #1007, .F. ) ;
#280 = DIRECTION ( 'NONE',  ( 1.000000000000000000, 0.000000000000000000, 0.000000000000000000 ) ) ;
#281 = CYLINDRICAL_SURFACE ( 'NONE', #1164, 1.824999999999999956 ) ;
#282 = ORIENTED_EDGE ( 'NONE', *, *, #1112, .F. ) ;
#283 = AXIS2_PLACEMENT_3D ( 'NONE', #699, #708, #1107 ) ;
#284 = ADVANCED_FACE ( 'NONE', ( #919 ), #39, .T. ) ;
#285 = AXIS2_PLACEMENT_3D ( 'NONE', #907, #824, #1223 ) ;
#286 = CONICAL_SURFACE ( 'NONE', #1184, 0.9000000000000023537, 0.7853981633974450594 ) ;
#287 = VECTOR ( 'NONE', #826, 1000.000000000000114 ) ;
#288 = ORIENTED_EDGE ( 'NONE', *, *, #790, .F. ) ;
#289 = LINE ( 'NONE', #1158, #7 ) ;
#290 = EDGE_LOOP ( 'NONE', ( #1063, #747, #862, #1251, #936, #210, #988, #795 ) ) ;
#291 = ADVANCED_FACE ( 'NONE', ( #136 ), #504, .T. ) ;
#292 = DIRECTION ( 'NONE',  ( 0.000000000000000000, 0.000000000000000000, -1.000000000000000000 ) ) ;
#293 = EDGE_CURVE ( 'NONE', #893, #602, #130, .T. ) ;
#294 = EDGE_LOOP ( 'NONE', ( #481, #664, #620, #993 ) ) ;
#295 = CARTESIAN_POINT ( 'NONE',  ( -2.500000000000000000, 3.400000000000002576, 12.00000000000000000 ) ) ;
#296 = ORIENTED_EDGE ( 'NONE', *, *, #783, .T. ) ;
#297 = CARTESIAN_POINT ( 'NONE',  ( -2.500000000000000000, 3.400000000000002576, 12.00000000000000000 ) ) ;
#298 = EDGE_CURVE ( 'NONE', #1213, #152, #323, .T. ) ;
#299 = EDGE_CURVE ( 'NONE', #773, #363, #626, .T. ) ;
#300 = AXIS2_PLACEMENT_3D ( 'NONE', #153, #553, #250 ) ;
#301 = ORIENTED_EDGE ( 'NONE', *, *, #1112, .T. ) ;
#302 = VECTOR ( 'NONE', #1134, 1000.000000000000000 ) ;
#303 = CARTESIAN_POINT ( 'NONE',  ( -5.999997266822000519, 2.499999996817000358, 0.2999972668220999839 ) ) ;
#304 = ORIENTED_EDGE ( 'NONE', *, *, #1129, .T. ) ;
#305 = DIRECTION ( 'NONE',  ( -1.000000000000000000, -2.258879036800999981E-09, 6.629687767551000149E-09 ) ) ;
#306 = DIRECTION ( 'NONE',  ( 0.000000000000000000, 0.000000000000000000, -1.000000000000000000 ) ) ;
#307 = EDGE_CURVE ( 'NONE', #120, #757, #798, .T. ) ;
#308 = ORIENTED_EDGE ( 'NONE', *, *, #882, .F. ) ;
#309 = DIRECTION ( 'NONE',  ( 0.7071067811865474617, 0.7071067811865474617, 0.000000000000000000 ) ) ;
#310 = ORIENTED_EDGE ( 'NONE', *, *, #197, .F. ) ;
#311 = DIRECTION ( 'NONE',  ( 0.000000000000000000, 0.7071067811865452413, -0.7071067811865497932 ) ) ;
#312 = EDGE_CURVE ( 'NONE', #1130, #1162, #599, .T. ) ;
#313 = VERTEX_POINT ( 'NONE', #1093 ) ;
#314 = DIRECTION ( 'NONE',  ( 0.000000000000000000, 0.000000000000000000, -1.000000000000000000 ) ) ;
#315 = EDGE_LOOP ( 'NONE', ( #787, #334, #518, #912 ) ) ;
#316 = DIRECTION ( 'NONE',  ( 0.000000000000000000, 0.000000000000000000, 1.000000000000000000 ) ) ;
#317 = CARTESIAN_POINT ( 'NONE',  ( 6.515075759507894304, 0.6363961030678946251, 12.00000000000000000 ) ) ;
#318 = FACE_OUTER_BOUND ( 'NONE', #780, .T. ) ;
#319 = CARTESIAN_POINT ( 'NONE',  ( -2.500000000000000000, -2.500000000000000000, 0.000000000000000000 ) ) ;
#320 = FACE_OUTER_BOUND ( 'NONE', #1150, .T. ) ;
#321 = ORIENTED_EDGE ( 'NONE', *, *, #552, .F. ) ;
#322 = VECTOR ( 'NONE', #1030, 1000.000000000000114 ) ;
#323 = LINE ( 'NONE', #417, #1217 ) ;
#324 = DIRECTION ( 'NONE',  ( 0.000000000000000000, 0.000000000000000000, -1.000000000000000000 ) ) ;
#325 =( GEOMETRIC_REPRESENTATION_CONTEXT ( 3 ) GLOBAL_UNCERTAINTY_ASSIGNED_CONTEXT ( ( #1083 ) ) GLOBAL_UNIT_ASSIGNED_CONTEXT ( ( #149, #535, #623 ) ) REPRESENTATION_CONTEXT ( 'NONE', 'WORKASPACE' ) );
#326 = PLANE ( 'NONE',  #283 ) ;
#327 = ORIENTED_EDGE ( 'NONE', *, *, #755, .T. ) ;
#328 = CONICAL_SURFACE ( 'NONE', #1042, 0.9000000000000019096, 0.7853981633974452814 ) ;
#329 = EDGE_CURVE ( 'NONE', #602, #857, #140, .T. ) ;
#330 = DIRECTION ( 'NONE',  ( 0.7071067811865970887, 0.7071067811864980568, 0.000000000000000000 ) ) ;
#331 = LINE ( 'NONE', #903, #645 ) ;
#332 = EDGE_CURVE ( 'NONE', #101, #180, #811, .T. ) ;
#333 = DIRECTION ( 'NONE',  ( -1.000000000000000000, 0.000000000000000000, 0.000000000000000000 ) ) ;
#334 = ORIENTED_EDGE ( 'NONE', *, *, #1196, .F. ) ;
#335 = DIRECTION ( 'NONE',  ( 2.101149708200000161E-12, -3.453611738937999834E-12, -1.000000000000000000 ) ) ;
#336 = DIRECTION ( 'NONE',  ( -0.7071067811742981490, -0.7071067811987969964, 1.738566148204995504E-11 ) ) ;
#337 = EDGE_CURVE ( 'NONE', #784, #313, #804, .T. ) ;
#338 = CARTESIAN_POINT ( 'NONE',  ( 6.828427124745999777, -4.000000000000000000, 5.049999999999999822 ) ) ;
#339 = ORIENTED_EDGE ( 'NONE', *, *, #443, .F. ) ;
#340 = CARTESIAN_POINT ( 'NONE',  ( 5.878679656440000123, 0.000000000000000000, 0.1499999999314000354 ) ) ;
#341 = VECTOR ( 'NONE', #964, 1000.000000000000000 ) ;
#342 = CARTESIAN_POINT ( 'NONE',  ( 6.939339828219821982, -1.060660171779820971, 11.39999999999999858 ) ) ;
#343 = LINE ( 'NONE', #1103, #897 ) ;
#344 = AXIS2_PLACEMENT_3D ( 'NONE', #512, #522, #1091 ) ;
#345 = DIRECTION ( 'NONE',  ( 1.000000000000000000, 0.000000000000000000, -0.000000000000000000 ) ) ;
#346 = VERTEX_POINT ( 'NONE', #27 ) ;
#347 = PLANE ( 'NONE',  #975 ) ;
#348 = CIRCLE ( 'NONE', #1060, 2.125000000000000000 ) ;
#349 = AXIS2_PLACEMENT_3D ( 'NONE', #252, #124, #528 ) ;
#350 = LINE ( 'NONE', #29, #1224 ) ;
#351 = CARTESIAN_POINT ( 'NONE',  ( -5.629374371722000170, -3.947975332877999843, 0.2479753874720000140 ) ) ;
#352 = ADVANCED_FACE ( 'NONE', ( #1201 ), #613, .F. ) ;
#353 = ORIENTED_EDGE ( 'NONE', *, *, #1244, .T. ) ;
#354 = PRODUCT_DEFINITION ( 'UNKNOWN', '', #216, #202 ) ;
#355 = CARTESIAN_POINT ( 'NONE',  ( 4.000000000000000000, 4.000000000000000000, 0.000000000000000000 ) ) ;
#356 = FACE_OUTER_BOUND ( 'NONE', #166, .T. ) ;
#357 = ORIENTED_EDGE ( 'NONE', *, *, #651, .F. ) ;
#358 = EDGE_CURVE ( 'NONE', #445, #313, #841, .T. ) ;
#359 = CARTESIAN_POINT ( 'NONE',  ( 6.939339828220000506, 1.060660171779999938, 5.049999999999999822 ) ) ;
#360 = ORIENTED_EDGE ( 'NONE', *, *, #845, .T. ) ;
#361 = LINE ( 'NONE', #1229, #322 ) ;
#362 = CARTESIAN_POINT ( 'NONE',  ( 3.378679656439999679, 3.400000000000002576, 12.00000000000000000 ) ) ;
#363 = VERTEX_POINT ( 'NONE', #545 ) ;
#364 = CIRCLE ( 'NONE', #1119, 2.125000000000000000 ) ;
#365 = CARTESIAN_POINT ( 'NONE',  ( 3.378679656439999679, 2.500000000000000000, 12.00000000000000000 ) ) ;
#366 = ORIENTED_EDGE ( 'NONE', *, *, #844, .F. ) ;
#367 = AXIS2_PLACEMENT_3D ( 'NONE', #385, #592, #193 ) ;
#368 = CARTESIAN_POINT ( 'NONE',  ( -2.500000000000000000, -3.400000000000002576, 12.00000000000000000 ) ) ;
#369 = PLANE ( 'NONE',  #935 ) ;
#370 = EDGE_LOOP ( 'NONE', ( #310, #20, #990, #11 ) ) ;
#371 = EDGE_CURVE ( 'NONE', #1168, #387, #361, .T. ) ;
#372 = CARTESIAN_POINT ( 'NONE',  ( -1.824999999999999956, 0.000000000000000000, 0.2999999999999999889 ) ) ;
#373 = ORIENTED_EDGE ( 'NONE', *, *, #941, .F. ) ;
#374 = DIRECTION ( 'NONE',  ( -1.000000000000000000, 0.000000000000000000, 0.000000000000000000 ) ) ;
#375 = CARTESIAN_POINT ( 'NONE',  ( -2.500000000000000000, 2.500000000000000000, 11.39999999999999858 ) ) ;
#376 = B_SPLINE_CURVE_WITH_KNOTS ( 'NONE', 3,
 ( #714, #214, #425, #601, #900 ),
 .UNSPECIFIED., .F., .F.,
 ( 4, 1, 4 ),
 ( 0.000000000000000000, 0.5000000000000000000, 1.000000000000000000 ),
 .UNSPECIFIED. ) ;
#377 = VERTEX_POINT ( 'NONE', #1148 ) ;
#378 = ORIENTED_EDGE ( 'NONE', *, *, #1244, .F. ) ;
#379 = DIRECTION ( 'NONE',  ( -0.7071067811865474617, 0.7071067811865474617, 0.000000000000000000 ) ) ;
#380 = CARTESIAN_POINT ( 'NONE',  ( -2.500000000000000000, 2.500000000000000000, 5.049999999999999822 ) ) ;
#381 = ORIENTED_EDGE ( 'NONE', *, *, #222, .T. ) ;
#382 = VECTOR ( 'NONE', #255, 1000.000000000000000 ) ;
#383 = ADVANCED_FACE ( 'NONE', ( #1247 ), #461, .T. ) ;
#384 = ORIENTED_EDGE ( 'NONE', *, *, #358, .T. ) ;
#385 = CARTESIAN_POINT ( 'NONE',  ( -2.500000000000000000, 2.500000000000000000, 12.00000000000000000 ) ) ;
#386 = FACE_OUTER_BOUND ( 'NONE', #721, .T. ) ;
#387 = VERTEX_POINT ( 'NONE', #1132 ) ;
#388 = EDGE_CURVE ( 'NONE', #6, #482, #1049, .T. ) ;
#389 = DIRECTION ( 'NONE',  ( -1.000000000000000000, 0.000000000000000000, 0.000000000000000000 ) ) ;
#390 = VECTOR ( 'NONE', #22, 1000.000000000000000 ) ;
#391 = VECTOR ( 'NONE', #860, 1000.000000000000000 ) ;
#392 = AXIS2_PLACEMENT_3D ( 'NONE', #1106, #133, #521 ) ;
#393 = EDGE_LOOP ( 'NONE', ( #232, #905, #263 ) ) ;
#394 = CARTESIAN_POINT ( 'NONE',  ( -2.500000000000000000, -4.000000000000000000, 11.39999999999999858 ) ) ;
#395 = ORIENTED_EDGE ( 'NONE', *, *, #932, .F. ) ;
#396 = LINE ( 'NONE', #696, #260 ) ;
#397 = ADVANCED_FACE ( 'NONE', ( #472 ), #652, .T. ) ;
#398 = EDGE_CURVE ( 'NONE', #98, #854, #268, .T. ) ;
#399 = ORIENTED_EDGE ( 'NONE', *, *, #790, .T. ) ;
#400 = CARTESIAN_POINT ( 'NONE',  ( 5.878679656440000123, 0.000000000000000000, 20.73240000000000194 ) ) ;
#401 = CARTESIAN_POINT ( 'NONE',  ( -5.999999999952000174, -2.499999994096000044, 0.2999999999522999783 ) ) ;
#402 = ADVANCED_FACE ( 'NONE', ( #175 ), #347, .T. ) ;
#403 = ORIENTED_EDGE ( 'NONE', *, *, #388, .F. ) ;
#404 = CARTESIAN_POINT ( 'NONE',  ( 8.353553390592999506, -2.474873734152999827, 5.049999999999999822 ) ) ;
#405 = VECTOR ( 'NONE', #261, 1000.000000000000000 ) ;
#406 = ORIENTED_EDGE ( 'NONE', *, *, #440, .F. ) ;
#407 = AXIS2_PLACEMENT_3D ( 'NONE', #1121, #726, #1260 ) ;
#408 = DIRECTION ( 'NONE',  ( 0.7071067811865474617, 0.7071067811865476838, 0.000000000000000000 ) ) ;
#409 = ORIENTED_EDGE ( 'NONE', *, *, #967, .F. ) ;
#410 = LINE ( 'NONE', #794, #1163 ) ;
#411 = AXIS2_PLACEMENT_3D ( 'NONE', #998, #33, #1212 ) ;
#412 = VECTOR ( 'NONE', #93, 1000.000000000000000 ) ;
#413 = VERTEX_POINT ( 'NONE', #1037 ) ;
#414 = LINE ( 'NONE', #118, #1098 ) ;
#415 = DIRECTION ( 'NONE',  ( 0.000000000000000000, 0.000000000000000000, -1.000000000000000000 ) ) ;
#416 = ORIENTED_EDGE ( 'NONE', *, *, #530, .F. ) ;
#417 = CARTESIAN_POINT ( 'NONE',  ( -2.500000000000000000, -4.000000000000000000, 9.000000000000000000 ) ) ;
#418 = CARTESIAN_POINT ( 'NONE',  ( -2.500000000000000000, 2.500000000000000000, 12.00000000000000000 ) ) ;
#419 = CARTESIAN_POINT ( 'NONE',  ( -2.500000000000000000, -2.500000000000000000, 20.73240000000000194 ) ) ;
#420 = CARTESIAN_POINT ( 'NONE',  ( 4.000000000000000000, -4.000000000000000000, 0.000000000000000000 ) ) ;
#421 = ORIENTED_EDGE ( 'NONE', *, *, #1008, .T. ) ;
#422 = DIRECTION ( 'NONE',  ( 0.000000000000000000, 0.000000000000000000, -1.000000000000000000 ) ) ;
#423 = CARTESIAN_POINT ( 'NONE',  ( 0.000000000000000000, 0.000000000000000000, 0.1500000004003000098 ) ) ;
#424 = EDGE_CURVE ( 'NONE', #803, #879, #273, .T. ) ;
#425 = CARTESIAN_POINT ( 'NONE',  ( -5.563436428059999272, 3.845361420849000123, 0.1453613704448999955 ) ) ;
#426 = EDGE_LOOP ( 'NONE', ( #1236, #999, #1036, #109 ) ) ;
#427 = AXIS2_PLACEMENT_3D ( 'NONE', #455, #837, #540 ) ;
#428 = LINE ( 'NONE', #533, #449 ) ;
#429 = DIRECTION ( 'NONE',  ( 1.000000000000000000, 0.000000000000000000, 0.000000000000000000 ) ) ;
#430 = CARTESIAN_POINT ( 'NONE',  ( 8.000000000000000000, 0.000000000000000000, 11.39999999999999858 ) ) ;
#431 = EDGE_CURVE ( 'NONE', #840, #445, #71, .T. ) ;
#432 = DIRECTION ( 'NONE',  ( 0.000000000000000000, 0.000000000000000000, -1.000000000000000000 ) ) ;
#433 = ORIENTED_EDGE ( 'NONE', *, *, #737, .F. ) ;
#434 = AXIS2_PLACEMENT_3D ( 'NONE', #766, #1031, #931 ) ;
#435 = DIRECTION ( 'NONE',  ( 5.466260222405010700E-07, 0.9999999999997011280, -5.466260224292011642E-07 ) ) ;
#436 = SURFACE_STYLE_USAGE ( .BOTH. , #1027 ) ;
#437 = VECTOR ( 'NONE', #511, 1000.000000000000000 ) ;
#438 = APPLICATION_PROTOCOL_DEFINITION ( 'draft international standard', 'automotive_design', 1998, #53 ) ;
#439 = ADVANCED_FACE ( 'NONE', ( #1153 ), #855, .T. ) ;
#440 = EDGE_CURVE ( 'NONE', #152, #49, #1141, .T. ) ;
#441 = DIRECTION ( 'NONE',  ( -0.7071067811865474617, -0.7071067811865474617, 0.000000000000000000 ) ) ;
#442 = VERTEX_POINT ( 'NONE', #738 ) ;
#443 = EDGE_CURVE ( 'NONE', #190, #767, #1177, .T. ) ;
#444 = DIRECTION ( 'NONE',  ( 1.000000000000000000, 8.673617379884035472E-16, 0.000000000000000000 ) ) ;
#445 = VERTEX_POINT ( 'NONE', #1136 ) ;
#446 = DIRECTION ( 'NONE',  ( 1.000000000000000000, 0.000000000000000000, 0.000000000000000000 ) ) ;
#447 = DIRECTION ( 'NONE',  ( 0.000000000000000000, 0.000000000000000000, -1.000000000000000000 ) ) ;
#448 = FACE_OUTER_BOUND ( 'NONE', #254, .T. ) ;
#449 = VECTOR ( 'NONE', #243, 1000.000000000000000 ) ;
#450 = EDGE_CURVE ( 'NONE', #152, #15, #47, .T. ) ;
#451 = EDGE_CURVE ( 'NONE', #947, #270, #1157, .T. ) ;
#452 = VECTOR ( 'NONE', #497, 1000.000000000000000 ) ;
#453 = DIRECTION ( 'NONE',  ( 0.7071067811865452413, 0.000000000000000000, 0.7071067811865497932 ) ) ;
#454 = ORIENTED_EDGE ( 'NONE', *, *, #129, .T. ) ;
#455 = CARTESIAN_POINT ( 'NONE',  ( -2.500000000000000000, -2.500000000000000000, 12.00000000000000000 ) ) ;
#456 = AXIS2_PLACEMENT_3D ( 'NONE', #1206, #314, #619 ) ;
#457 = AXIS2_PLACEMENT_3D ( 'NONE', #1137, #256, #77 ) ;
#458 = LINE ( 'NONE', #842, #245 ) ;
#459 = FACE_OUTER_BOUND ( 'NONE', #593, .T. ) ;
#460 = ORIENTED_EDGE ( 'NONE', *, *, #167, .F. ) ;
#461 = PLANE ( 'NONE',  #300 ) ;
#462 = CARTESIAN_POINT ( 'NONE',  ( 3.378679656439999679, 3.400000000000002576, 12.00000000000000000 ) ) ;
#463 = DIRECTION ( 'NONE',  ( -1.000000000000000000, 0.000000000000000000, 0.000000000000000000 ) ) ;
#464 = ORIENTED_EDGE ( 'NONE', *, *, #1078, .T. ) ;
#465 = DIRECTION ( 'NONE',  ( -0.5000000000000009992, 0.5000000000000009992, -0.7071067811865461294 ) ) ;
#466 = PLANE ( 'NONE',  #457 ) ;
#467 = ORIENTED_EDGE ( 'NONE', *, *, #307, .F. ) ;
#468 = AXIS2_PLACEMENT_3D ( 'NONE', #355, #752, #1055 ) ;
#469 = AXIS2_PLACEMENT_3D ( 'NONE', #227, #144, #444 ) ;
#470 = LINE ( 'NONE', #1138, #179 ) ;
#471 = ORIENTED_EDGE ( 'NONE', *, *, #1250, .F. ) ;
#472 = FACE_OUTER_BOUND ( 'NONE', #426, .T. ) ;
#473 = CARTESIAN_POINT ( 'NONE',  ( -5.662277660168000715, -4.000000000000000000, 5.049999999999999822 ) ) ;
#474 = ORIENTED_EDGE ( 'NONE', *, *, #332, .F. ) ;
#475 = VECTOR ( 'NONE', #573, 1000.000000000000114 ) ;
#476 = PLANE ( 'NONE',  #1014 ) ;
#477 = PRODUCT_DEFINITION_SHAPE ( 'NONE', 'NONE',  #354 ) ;
#478 = ORIENTED_EDGE ( 'NONE', *, *, #299, .F. ) ;
#479 = DIRECTION ( 'NONE',  ( 0.000000000000000000, -0.7071067811865475727, -0.7071067811865475727 ) ) ;
#480 = PLANE ( 'NONE',  #1146 ) ;
#481 = ORIENTED_EDGE ( 'NONE', *, *, #198, .F. ) ;
#482 = VERTEX_POINT ( 'NONE', #181 ) ;
#483 = DIRECTION ( 'NONE',  ( 0.000000000000000000, 0.000000000000000000, -1.000000000000000000 ) ) ;
#484 = ORIENTED_EDGE ( 'NONE', *, *, #307, .T. ) ;
#485 = LINE ( 'NONE', #491, #769 ) ;
#486 = ADVANCED_FACE ( 'NONE', ( #644 ), #169, .F. ) ;
#487 = ORIENTED_EDGE ( 'NONE', *, *, #832, .T. ) ;
#488 = DIRECTION ( 'NONE',  ( 0.000000000000000000, 0.000000000000000000, 1.000000000000000000 ) ) ;
#489 = ORIENTED_EDGE ( 'NONE', *, *, #450, .T. ) ;
#490 = CIRCLE ( 'NONE', #663, 1.500000000000000444 ) ;
#491 = CARTESIAN_POINT ( 'NONE',  ( 6.704163056033999091, 3.700000000000000178, 0.000000000000000000 ) ) ;
#492 = AXIS2_PLACEMENT_3D ( 'NONE', #100, #786, #871 ) ;
#493 = ADVANCED_FACE ( 'NONE', ( #87 ), #137, .F. ) ;
#494 = ORIENTED_EDGE ( 'NONE', *, *, #209, .T. ) ;
#495 = DIRECTION ( 'NONE',  ( 0.000000000000000000, -0.7071067811865475727, 0.7071067811865475727 ) ) ;
#496 = ORIENTED_EDGE ( 'NONE', *, *, #56, .T. ) ;
#497 = DIRECTION ( 'NONE',  ( 1.000000000000000000, 0.000000000000000000, 0.000000000000000000 ) ) ;
#498 = ORIENTED_EDGE ( 'NONE', *, *, #576, .F. ) ;
#499 = FACE_OUTER_BOUND ( 'NONE', #1240, .T. ) ;
#500 = ORIENTED_EDGE ( 'NONE', *, *, #682, .T. ) ;
#501 = LINE ( 'NONE', #9, #50 ) ;
#502 = CIRCLE ( 'NONE', #276, 3.500000000000003109 ) ;
#503 = ORIENTED_EDGE ( 'NONE', *, *, #981, .T. ) ;
#504 = CONICAL_SURFACE ( 'NONE', #1120, 3.349999999931000172, 0.7853981633972997312 ) ;
#505 = CYLINDRICAL_SURFACE ( 'NONE', #605, 1.824999999999999956 ) ;
#506 = ORIENTED_EDGE ( 'NONE', *, *, #1165, .T. ) ;
#507 = DIRECTION ( 'NONE',  ( 1.000000000000000000, 3.552713678800499352E-15, 0.000000000000000000 ) ) ;
#508 = CARTESIAN_POINT ( 'NONE',  ( -4.000000000000000000, -4.000000000000000000, 0.000000000000000000 ) ) ;
#509 = CIRCLE ( 'NONE', #285, 1.500000000000001554 ) ;
#510 = CIRCLE ( 'NONE', #588, 1.824999999999999956 ) ;
#511 = DIRECTION ( 'NONE',  ( 0.000000000000000000, 0.000000000000000000, -1.000000000000000000 ) ) ;
#512 = CARTESIAN_POINT ( 'NONE',  ( 5.878679656440000123, 0.000000000000000000, 12.00000000000000000 ) ) ;
#513 = ORIENTED_EDGE ( 'NONE', *, *, #683, .F. ) ;
#514 = CARTESIAN_POINT ( 'NONE',  ( 5.878679656440000123, 0.000000000000000000, 5.049999999999999822 ) ) ;
#515 = EDGE_CURVE ( 'NONE', #602, #482, #1087, .T. ) ;
#516 = ADVANCED_FACE ( 'NONE', ( #499 ), #672, .F. ) ;
#517 = CARTESIAN_POINT ( 'NONE',  ( 1.824999999999999956, 0.000000000000000000, 1.000000000000000000 ) ) ;
#518 = ORIENTED_EDGE ( 'NONE', *, *, #1255, .F. ) ;
#519 = CARTESIAN_POINT ( 'NONE',  ( 8.353553387329998969, -2.474873737363000092, 0.2999999999624999858 ) ) ;
#520 = CARTESIAN_POINT ( 'NONE',  ( 3.378679656439999679, 4.000000000000000000, 11.39999999999999858 ) ) ;
#521 = DIRECTION ( 'NONE',  ( 0.7071067811865476838, 0.7071067811865473507, 0.000000000000000000 ) ) ;
#522 = DIRECTION ( 'NONE',  ( 0.000000000000000000, 0.000000000000000000, 1.000000000000000000 ) ) ;
#523 = ORIENTED_EDGE ( 'NONE', *, *, #898, .T. ) ;
#524 = AXIS2_PLACEMENT_3D ( 'NONE', #972, #666, #585 ) ;
#525 = EDGE_CURVE ( 'NONE', #1213, #445, #884, .T. ) ;
#526 = DIRECTION ( 'NONE',  ( 6.869684236616000255E-10, 6.758050493432000233E-10, 1.000000000000000000 ) ) ;
#527 = ADVANCED_FACE ( 'NONE', ( #1181 ), #909, .T. ) ;
#528 = DIRECTION ( 'NONE',  ( 1.000000000000000000, 0.000000000000000000, 0.000000000000000000 ) ) ;
#529 = CARTESIAN_POINT ( 'NONE',  ( -3.400000000000002576, -2.500000000000000000, 12.00000000000000000 ) ) ;
#530 = EDGE_CURVE ( 'NONE', #1108, #843, #92, .T. ) ;
#531 = LINE ( 'NONE', #1193, #96 ) ;
#532 = ORIENTED_EDGE ( 'NONE', *, *, #1101, .F. ) ;
#533 = CARTESIAN_POINT ( 'NONE',  ( -4.000000000000000000, 4.000000000000000000, 11.39999999999999858 ) ) ;
#534 = ORIENTED_EDGE ( 'NONE', *, *, #157, .F. ) ;
#535 =( NAMED_UNIT ( * ) PLANE_ANGLE_UNIT ( ) SI_UNIT ( $, .RADIAN. ) );
#536 = DIRECTION ( 'NONE',  ( -1.000000000000000000, 0.000000000000000000, 0.000000000000000000 ) ) ;
#537 = EDGE_CURVE ( 'NONE', #65, #803, #289, .T. ) ;
#538 = LINE ( 'NONE', #1028, #1258 ) ;
#539 = ORIENTED_EDGE ( 'NONE', *, *, #293, .F. ) ;
#540 = DIRECTION ( 'NONE',  ( 1.000000000000000000, 0.000000000000000000, 0.000000000000000000 ) ) ;
#541 = FACE_OUTER_BOUND ( 'NONE', #1265, .T. ) ;
#542 = AXIS2_PLACEMENT_3D ( 'NONE', #258, #1128, #64 ) ;
#543 = CARTESIAN_POINT ( 'NONE',  ( 8.353553387869999014, 2.474873736846999961, 0.2999999999792999361 ) ) ;
#544 = EDGE_LOOP ( 'NONE', ( #1074, #1183, #974, #835 ) ) ;
#545 = CARTESIAN_POINT ( 'NONE',  ( 8.353553390592999506, 2.474873734152999827, 5.049999999999999822 ) ) ;
#546 = CIRCLE ( 'NONE', #1023, 3.499999999999998668 ) ;
#547 = FACE_OUTER_BOUND ( 'NONE', #709, .T. ) ;
#548 = EDGE_LOOP ( 'NONE', ( #433, #378, #225, #1051 ) ) ;
#549 = ADVANCED_FACE ( 'NONE', ( #778 ), #863, .T. ) ;
#550 = CARTESIAN_POINT ( 'NONE',  ( 5.878679656440000123, 0.000000000000000000, 0.000000000000000000 ) ) ;
#551 = VERTEX_POINT ( 'NONE', #1073 ) ;
#552 = EDGE_CURVE ( 'NONE', #1162, #68, #364, .T. ) ;
#553 = DIRECTION ( 'NONE',  ( 0.000000000000000000, 0.000000000000000000, -1.000000000000000000 ) ) ;
#554 = LINE ( 'NONE', #838, #391 ) ;
#555 = ORIENTED_EDGE ( 'NONE', *, *, #941, .T. ) ;
#556 = DIRECTION ( 'NONE',  ( 5.733911591121999935E-10, -5.672374850505999431E-10, 1.000000000000000000 ) ) ;
#557 = ORIENTED_EDGE ( 'NONE', *, *, #576, .T. ) ;
#558 = DIRECTION ( 'NONE',  ( 0.000000000000000000, 0.000000000000000000, 1.000000000000000000 ) ) ;
#559 = DIRECTION ( 'NONE',  ( -1.000000000000000000, 0.000000000000000000, 0.000000000000000000 ) ) ;
#560 = ORIENTED_EDGE ( 'NONE', *, *, #60, .F. ) ;
#561 = ADVANCED_FACE ( 'NONE', ( #1252 ), #987, .T. ) ;
#562 = AXIS2_PLACEMENT_3D ( 'NONE', #878, #960, #765 ) ;
#563 = LINE ( 'NONE', #1052, #929 ) ;
#564 = CIRCLE ( 'NONE', #411, 3.200000000000002842 ) ;
#565 = EDGE_LOOP ( 'NONE', ( #177, #496, #272, #384, #1261, #90, #242, #557, #494, #1140 ) ) ;
#566 = CARTESIAN_POINT ( 'NONE',  ( 3.575735931288073211, 3.575735931288073211, 12.00000000000000000 ) ) ;
#567 = DIRECTION ( 'NONE',  ( -1.000000000000000000, 0.000000000000000000, 0.000000000000000000 ) ) ;
#568 = VERTEX_POINT ( 'NONE', #792 ) ;
#569 = AXIS2_PLACEMENT_3D ( 'NONE', #598, #1270, #587 ) ;
#570 = AXIS2_PLACEMENT_3D ( 'NONE', #830, #915, #536 ) ;
#571 = EDGE_LOOP ( 'NONE', ( #886, #872, #249, #624 ) ) ;
#572 = FACE_OUTER_BOUND ( 'NONE', #544, .T. ) ;
#573 = DIRECTION ( 'NONE',  ( 0.7071067811865474617, 0.7071067811865474617, 0.000000000000000000 ) ) ;
#574 = ORIENTED_EDGE ( 'NONE', *, *, #1035, .T. ) ;
#575 = LINE ( 'NONE', #894, #159 ) ;
#576 = EDGE_CURVE ( 'NONE', #94, #770, #771, .T. ) ;
#577 = ADVANCED_FACE ( 'NONE', ( #690 ), #719, .T. ) ;
#578 = ORIENTED_EDGE ( 'NONE', *, *, #312, .F. ) ;
#579 = ADVANCED_FACE ( 'NONE', ( #572 ), #888, .T. ) ;
#580 = FACE_OUTER_BOUND ( 'NONE', #370, .T. ) ;
#581 = VERTEX_POINT ( 'NONE', #295 ) ;
#582 = FACE_OUTER_BOUND ( 'NONE', #865, .T. ) ;
#583 = AXIS2_PLACEMENT_3D ( 'NONE', #1189, #316, #1109 ) ;
#584 = ORIENTED_EDGE ( 'NONE', *, *, #591, .F. ) ;
#585 = DIRECTION ( 'NONE',  ( 0.000000000000000000, -1.000000000000000000, 0.000000000000000000 ) ) ;
#586 = ORIENTED_EDGE ( 'NONE', *, *, #881, .F. ) ;
#587 = DIRECTION ( 'NONE',  ( 0.000000000000000000, -1.000000000000000000, 0.000000000000000000 ) ) ;
#588 = AXIS2_PLACEMENT_3D ( 'NONE', #52, #251, #1050 ) ;
#589 = CIRCLE ( 'NONE', #1269, 3.200000000000001066 ) ;
#590 = EDGE_LOOP ( 'NONE', ( #43, #421, #736, #1004 ) ) ;
#591 = EDGE_CURVE ( 'NONE', #751, #192, #979, .T. ) ;
#592 = DIRECTION ( 'NONE',  ( 0.000000000000000000, 0.000000000000000000, -1.000000000000000000 ) ) ;
#593 = EDGE_LOOP ( 'NONE', ( #104, #205, #649, #962 ) ) ;
#594 = CARTESIAN_POINT ( 'NONE',  ( 5.878679656440000123, 0.000000000000000000, 11.39999999999999858 ) ) ;
#595 = ORIENTED_EDGE ( 'NONE', *, *, #70, .T. ) ;
#596 = DIRECTION ( 'NONE',  ( 0.000000000000000000, -0.8164965809277076048, -0.5773502691896517103 ) ) ;
#597 = EDGE_LOOP ( 'NONE', ( #940, #471, #215, #498 ) ) ;
#598 = CARTESIAN_POINT ( 'NONE',  ( 0.000000000000000000, 0.000000000000000000, 0.1500000004003000098 ) ) ;
#599 = CIRCLE ( 'NONE', #583, 2.125000000000000000 ) ;
#600 = AXIS2_PLACEMENT_3D ( 'NONE', #1144, #926, #248 ) ;
#601 = CARTESIAN_POINT ( 'NONE',  ( -5.629185658683999449, 3.947676951487000263, 0.2476770522950000053 ) ) ;
#602 = VERTEX_POINT ( 'NONE', #1257 ) ;
#603 = CARTESIAN_POINT ( 'NONE',  ( 4.439339828219999617, 3.560660171780000383, 11.39999999999999858 ) ) ;
#604 = EDGE_CURVE ( 'NONE', #413, #120, #502, .T. ) ;
#605 = AXIS2_PLACEMENT_3D ( 'NONE', #1199, #432, #816 ) ;
#606 = VECTOR ( 'NONE', #1057, 1000.000000000000000 ) ;
#607 = FACE_OUTER_BOUND ( 'NONE', #660, .T. ) ;
#608 = EDGE_LOOP ( 'NONE', ( #187, #171, #1232, #1143 ) ) ;
#609 = ADVANCED_FACE ( 'NONE', ( #206 ), #866, .T. ) ;
#610 = ADVANCED_FACE ( 'NONE', ( #580 ), #211, .T. ) ;
#611 = PLANE ( 'NONE',  #1021 ) ;
#612 = EDGE_LOOP ( 'NONE', ( #357, #684, #691, #84 ) ) ;
#613 = PLANE ( 'NONE',  #996 ) ;
#614 = CARTESIAN_POINT ( 'NONE',  ( 8.141421352258999988, -2.262741703710000607, -4.571202675644000011E-11 ) ) ;
#615 = DIRECTION ( 'NONE',  ( 0.000000000000000000, 0.000000000000000000, -1.000000000000000000 ) ) ;
#616 = PRODUCT ( 'Manual Button_Taller', 'Manual Button_Taller', '', ( #1216 ) ) ;
#617 = ADVANCED_FACE ( 'NONE', ( #607 ), #231, .T. ) ;
#618 = VECTOR ( 'NONE', #635, 1000.000000000000000 ) ;
#619 = DIRECTION ( 'NONE',  ( 0.000000000000000000, 1.000000000000000000, 0.000000000000000000 ) ) ;
#620 = ORIENTED_EDGE ( 'NONE', *, *, #125, .T. ) ;
#621 = AXIS2_PLACEMENT_3D ( 'NONE', #550, #839, #463 ) ;
#622 = CARTESIAN_POINT ( 'NONE',  ( 3.378679656439999679, -2.500000000000000000, 12.00000000000000000 ) ) ;
#623 =( NAMED_UNIT ( * ) SI_UNIT ( $, .STERADIAN. ) SOLID_ANGLE_UNIT ( ) );
#624 = ORIENTED_EDGE ( 'NONE', *, *, #191, .F. ) ;
#625 = PRODUCT_RELATED_PRODUCT_CATEGORY ( 'part', '', ( #616 ) ) ;
#626 = LINE ( 'NONE', #902, #768 ) ;
#627 = LINE ( 'NONE', #1133, #390 ) ;
#628 = CARTESIAN_POINT ( 'NONE',  ( -4.000000000000000000, 2.500000000000000000, 11.39999999999999858 ) ) ;
#629 = ORIENTED_EDGE ( 'NONE', *, *, #873, .F. ) ;
#630 = DIRECTION ( 'NONE',  ( 0.000000000000000000, 0.000000000000000000, 1.000000000000000000 ) ) ;
#631 = DIRECTION ( 'NONE',  ( 0.000000000000000000, 0.000000000000000000, -1.000000000000000000 ) ) ;
#632 = ADVANCED_FACE ( 'NONE', ( #236 ), #720, .T. ) ;
#633 = PLANE ( 'NONE',  #600 ) ;
#634 = ORIENTED_EDGE ( 'NONE', *, *, #642, .T. ) ;
#635 = DIRECTION ( 'NONE',  ( -4.585322599910000210E-10, -9.591442408277000183E-12, 1.000000000000000000 ) ) ;
#636 = VECTOR ( 'NONE', #309, 1000.000000000000114 ) ;
#637 = CARTESIAN_POINT ( 'NONE',  ( 6.828427124745999777, 4.000000000000000000, 0.2999999999999999889 ) ) ;
#638 = ORIENTED_EDGE ( 'NONE', *, *, #97, .F. ) ;
#639 = ADVANCED_FACE ( 'NONE', ( #19 ), #611, .T. ) ;
#640 = VECTOR ( 'NONE', #429, 1000.000000000000000 ) ;
#641 = LINE ( 'NONE', #253, #278 ) ;
#642 = EDGE_CURVE ( 'NONE', #773, #754, #531, .T. ) ;
#643 = ORIENTED_EDGE ( 'NONE', *, *, #763, .T. ) ;
#644 = FACE_OUTER_BOUND ( 'NONE', #315, .T. ) ;
#645 = VECTOR ( 'NONE', #23, 1000.000000000000114 ) ;
#646 = DIRECTION ( 'NONE',  ( -0.7071067811865474617, 2.816361089647187697E-09, 0.7071067811865474617 ) ) ;
#647 = EDGE_LOOP ( 'NONE', ( #1011, #1243, #395, #513 ) ) ;
#648 = DIRECTION ( 'NONE',  ( 0.000000000000000000, -1.000000000000000000, 0.000000000000000000 ) ) ;
#649 = ORIENTED_EDGE ( 'NONE', *, *, #932, .T. ) ;
#650 = ADVANCED_FACE ( 'NONE', ( #110 ), #505, .F. ) ;
#651 = EDGE_CURVE ( 'NONE', #657, #767, #414, .T. ) ;
#652 = PLANE ( 'NONE',  #681 ) ;
#653 = PLANE ( 'NONE',  #434 ) ;
#654 = ORIENTED_EDGE ( 'NONE', *, *, #1129, .F. ) ;
#655 = EDGE_CURVE ( 'NONE', #754, #695, #891, .T. ) ;
#656 = CARTESIAN_POINT ( 'NONE',  ( 6.704163056033999091, -3.700000000000000178, 0.000000000000000000 ) ) ;
#657 = VERTEX_POINT ( 'NONE', #517 ) ;
#658 = CARTESIAN_POINT ( 'NONE',  ( 3.378679656439999679, 2.500000000000000000, 11.39999999999999858 ) ) ;
#659 = CARTESIAN_POINT ( 'NONE',  ( -5.700003331895000080, 2.499999995621999815, 3.331894624859999967E-06 ) ) ;
#660 = EDGE_LOOP ( 'NONE', ( #1268, #595, #827, #409 ) ) ;
#661 = AXIS2_PLACEMENT_3D ( 'NONE', #400, #870, #408 ) ;
#662 = VECTOR ( 'NONE', #823, 1000.000000000000000 ) ;
#663 = AXIS2_PLACEMENT_3D ( 'NONE', #594, #1185, #507 ) ;
#664 = ORIENTED_EDGE ( 'NONE', *, *, #424, .F. ) ;
#665 = EDGE_CURVE ( 'NONE', #657, #854, #1264, .T. ) ;
#666 = DIRECTION ( 'NONE',  ( 0.7071067811865497932, 0.000000000000000000, -0.7071067811865452413 ) ) ;
#667 = LINE ( 'NONE', #189, #475 ) ;
#668 = ORIENTED_EDGE ( 'NONE', *, *, #32, .T. ) ;
#669 = CIRCLE ( 'NONE', #119, 1.500000000000000000 ) ;
#670 = AXIS2_PLACEMENT_3D ( 'NONE', #419, #306, #1095 ) ;
#671 = VERTEX_POINT ( 'NONE', #917 ) ;
#672 = PLANE ( 'NONE',  #524 ) ;
#673 = LINE ( 'NONE', #1082, #997 ) ;
#674 = ORIENTED_EDGE ( 'NONE', *, *, #651, .T. ) ;
#675 = ORIENTED_EDGE ( 'NONE', *, *, #257, .F. ) ;
#676 = CARTESIAN_POINT ( 'NONE',  ( 5.878679656440000123, 0.000000000000000000, 0.2999999999999999889 ) ) ;
#677 = LINE ( 'NONE', #1182, #815 ) ;
#678 = EDGE_LOOP ( 'NONE', ( #296, #147, #460, #366 ) ) ;
#679 = DIRECTION ( 'NONE',  ( -0.7071067811865475727, 0.000000000000000000, 0.7071067811865475727 ) ) ;
#680 = VECTOR ( 'NONE', #422, 1000.000000000000000 ) ;
#681 = AXIS2_PLACEMENT_3D ( 'NONE', #1241, #44, #630 ) ;
#682 = EDGE_CURVE ( 'NONE', #757, #1246, #134, .T. ) ;
#683 = EDGE_CURVE ( 'NONE', #346, #65, #564, .T. ) ;
#684 = ORIENTED_EDGE ( 'NONE', *, *, #1035, .F. ) ;
#685 = CARTESIAN_POINT ( 'NONE',  ( 0.5830747322889000550, -3.850000000000000089, 0.1499999999999999944 ) ) ;
#686 = ORIENTED_EDGE ( 'NONE', *, *, #732, .F. ) ;
#687 = AXIS2_PLACEMENT_3D ( 'NONE', #1003, #1099, #1010 ) ;
#688 = LINE ( 'NONE', #297, #957 ) ;
#689 = ORIENTED_EDGE ( 'NONE', *, *, #665, .F. ) ;
#690 = FACE_OUTER_BOUND ( 'NONE', #548, .T. ) ;
#691 = ORIENTED_EDGE ( 'NONE', *, *, #398, .F. ) ;
#692 = CARTESIAN_POINT ( 'NONE',  ( -5.700004499721999629, -2.499999994407000159, 4.499721761632000019E-06 ) ) ;
#693 = ORIENTED_EDGE ( 'NONE', *, *, #848, .T. ) ;
#694 = LINE ( 'NONE', #223, #1126 ) ;
#695 = VERTEX_POINT ( 'NONE', #904 ) ;
#696 = CARTESIAN_POINT ( 'NONE',  ( 6.828427124745999777, -4.000000000000000000, 5.049999999999999822 ) ) ;
#697 = AXIS2_PLACEMENT_3D ( 'NONE', #806, #1117, #1195 ) ;
#698 = DIRECTION ( 'NONE',  ( 0.000000000000000000, 0.000000000000000000, -1.000000000000000000 ) ) ;
#699 = CARTESIAN_POINT ( 'NONE',  ( 0.000000000000000000, 0.000000000000000000, 5.049999999999999822 ) ) ;
#700 = EDGE_LOOP ( 'NONE', ( #560, #1220, #858, #506 ) ) ;
#701 = EDGE_CURVE ( 'NONE', #346, #413, #694, .T. ) ;
#702 = DIRECTION ( 'NONE',  ( 0.7071067811865474617, -0.7071067811865474617, 0.000000000000000000 ) ) ;
#703 = FACE_OUTER_BOUND ( 'NONE', #1228, .T. ) ;
#704 = AXIS2_PLACEMENT_3D ( 'NONE', #880, #1, #679 ) ;
#705 = APPLICATION_PROTOCOL_DEFINITION ( 'draft international standard', 'automotive_design', 1998, #235 ) ;
#706 = CIRCLE ( 'NONE', #1061, 3.500000000000000000 ) ;
#707 = CARTESIAN_POINT ( 'NONE',  ( -4.000000000000000000, -2.500000000000000000, 5.049999999999999822 ) ) ;
#708 = DIRECTION ( 'NONE',  ( 0.000000000000000000, 0.000000000000000000, -1.000000000000000000 ) ) ;
#709 = EDGE_LOOP ( 'NONE', ( #474, #740, #1089, #797 ) ) ;
#710 = EDGE_CURVE ( 'NONE', #1246, #208, #25, .T. ) ;
#711 = CARTESIAN_POINT ( 'NONE',  ( 3.575735931288072322, 3.575735931288072322, 12.00000000000000000 ) ) ;
#712 = DIRECTION ( 'NONE',  ( -0.7071067811865474617, 7.330630895915484110E-10, 0.7071067811865474617 ) ) ;
#713 = DIRECTION ( 'NONE',  ( 0.7071067811865474617, -0.7071067811865474617, 0.000000000000000000 ) ) ;
#714 = CARTESIAN_POINT ( 'NONE',  ( -5.466479394838000161, 3.700000000000000178, 0.000000000000000000 ) ) ;
#715 = ORIENTED_EDGE ( 'NONE', *, *, #1078, .F. ) ;
#716 = CARTESIAN_POINT ( 'NONE',  ( 6.704163056033999091, 3.700000000000000178, 0.000000000000000000 ) ) ;
#717 = CARTESIAN_POINT ( 'NONE',  ( 3.378679656439999679, 2.500000000000000000, 12.00000000000000000 ) ) ;
#718 = CARTESIAN_POINT ( 'NONE',  ( 4.439339828219999617, 3.560660171780000383, 9.000000000000000000 ) ) ;
#719 = CONICAL_SURFACE ( 'NONE', #1054, 3.350000045118000092, 0.7853981633972997312 ) ;
#720 = CYLINDRICAL_SURFACE ( 'NONE', #1002, 1.500000000000000000 ) ;
#721 = EDGE_LOOP ( 'NONE', ( #965, #381, #523, #107 ) ) ;
#722 = VECTOR ( 'NONE', #955, 1000.000000000000000 ) ;
#723 = DIRECTION ( 'NONE',  ( 0.000000000000000000, 0.000000000000000000, 1.000000000000000000 ) ) ;
#724 = DIRECTION ( 'NONE',  ( -0.4999999999999988898, 0.4999999999999980016, 0.7071067811865497932 ) ) ;
#725 = VECTOR ( 'NONE', #333, 1000.000000000000000 ) ;
#726 = DIRECTION ( 'NONE',  ( 0.000000000000000000, 0.000000000000000000, -1.000000000000000000 ) ) ;
#727 = DIRECTION ( 'NONE',  ( -1.000000000000000000, 0.000000000000000000, 0.000000000000000000 ) ) ;
#728 = AXIS2_PLACEMENT_3D ( 'NONE', #418, #1263, #1190 ) ;
#729 = VECTOR ( 'NONE', #713, 1000.000000000000114 ) ;
#730 = ORIENTED_EDGE ( 'NONE', *, *, #85, .T. ) ;
#731 = DIRECTION ( 'NONE',  ( -1.000000000000000000, 0.000000000000000000, 0.000000000000000000 ) ) ;
#732 = EDGE_CURVE ( 'NONE', #551, #94, #1221, .T. ) ;
#733 = LINE ( 'NONE', #145, #934 ) ;
#734 =( NAMED_UNIT ( * ) SI_UNIT ( $, .STERADIAN. ) SOLID_ANGLE_UNIT ( ) );
#735 = CARTESIAN_POINT ( 'NONE',  ( -5.662277660168000715, -4.000000000000000000, 0.2999999999999999889 ) ) ;
#736 = ORIENTED_EDGE ( 'NONE', *, *, #277, .T. ) ;
#737 = EDGE_CURVE ( 'NONE', #1039, #857, #376, .T. ) ;
#738 = CARTESIAN_POINT ( 'NONE',  ( -3.400000000000002576, 2.500000000000000000, 12.00000000000000000 ) ) ;
#739 = CYLINDRICAL_SURFACE ( 'NONE', #226, 1.500000000000000000 ) ;
#740 = ORIENTED_EDGE ( 'NONE', *, *, #1032, .T. ) ;
#741 = ADVANCED_FACE ( 'NONE', ( #320 ), #326, .F. ) ;
#742 = CARTESIAN_POINT ( 'NONE',  ( -3.400000000000002576, 2.500000000000000000, 12.00000000000000000 ) ) ;
#743 = EDGE_LOOP ( 'NONE', ( #922, #877, #534, #1152 ) ) ;
#744 = DIRECTION ( 'NONE',  ( -0.5000000000000013323, -0.5000000000000013323, -0.7071067811865456854 ) ) ;
#745 = AXIS2_PLACEMENT_3D ( 'NONE', #658, #758, #51 ) ;
#746 = CARTESIAN_POINT ( 'NONE',  ( -2.500000000000000000, 3.400000000000002576, 12.00000000000000000 ) ) ;
#747 = ORIENTED_EDGE ( 'NONE', *, *, #191, .T. ) ;
#748 = EDGE_CURVE ( 'NONE', #817, #1200, #575, .T. ) ;
#749 = ADVANCED_FACE ( 'NONE', ( #582 ), #204, .T. ) ;
#750 = DIRECTION ( 'NONE',  ( 0.000000000000000000, 0.000000000000000000, -1.000000000000000000 ) ) ;
#751 = VERTEX_POINT ( 'NONE', #103 ) ;
#752 = DIRECTION ( 'NONE',  ( -0.000000000000000000, 1.000000000000000000, 0.000000000000000000 ) ) ;
#753 = DIRECTION ( 'NONE',  ( 0.7071067811797974167, -0.7071067811932975067, -9.583694361550964157E-12 ) ) ;
#754 = VERTEX_POINT ( 'NONE', #788 ) ;
#755 = EDGE_CURVE ( 'NONE', #751, #1168, #490, .T. ) ;
#756 = LINE ( 'NONE', #656, #952 ) ;
#757 = VERTEX_POINT ( 'NONE', #404 ) ;
#758 = DIRECTION ( 'NONE',  ( 0.000000000000000000, 0.000000000000000000, -1.000000000000000000 ) ) ;
#759 = DIRECTION ( 'NONE',  ( 0.000000000000000000, 0.000000000000000000, -1.000000000000000000 ) ) ;
#760 = UNCERTAINTY_MEASURE_WITH_UNIT (LENGTH_MEASURE( 1.000000000000000082E-05 ), #1111, 'distance_accuracy_value', 'NONE');
#761 = EDGE_LOOP ( 'NONE', ( #1048, #1147, #956, #487 ) ) ;
#762 = DIRECTION ( 'NONE',  ( 1.000000000000000000, 0.000000000000000000, 0.000000000000000000 ) ) ;
#763 = EDGE_CURVE ( 'NONE', #1043, #978, #485, .T. ) ;
#764 = ORIENTED_EDGE ( 'NONE', *, *, #665, .T. ) ;
#765 = DIRECTION ( 'NONE',  ( -1.000000000000000000, 0.000000000000000000, 0.000000000000000000 ) ) ;
#766 = CARTESIAN_POINT ( 'NONE',  ( -2.500000000000000000, -2.500000000000000000, 12.00000000000000000 ) ) ;
#767 = VERTEX_POINT ( 'NONE', #984 ) ;
#768 = VECTOR ( 'NONE', #702, 1000.000000000000114 ) ;
#769 = VECTOR ( 'NONE', #887, 999.9999999999998863 ) ;
#770 = VERTEX_POINT ( 'NONE', #1090 ) ;
#771 = LINE ( 'NONE', #566, #1075 ) ;
#772 = FACE_OUTER_BOUND ( 'NONE', #700, .T. ) ;
#773 = VERTEX_POINT ( 'NONE', #1068 ) ;
#774 = AXIS2_PLACEMENT_3D ( 'NONE', #1215, #1102, #246 ) ;
#775 = VECTOR ( 'NONE', #724, 1000.000000000000114 ) ;
#776 = CARTESIAN_POINT ( 'NONE',  ( -2.124999999502000136, 1.042369233744999972E-11, 4.983133905511999839E-10 ) ) ;
#777 = EDGE_LOOP ( 'NONE', ( #454, #1079, #467, #949 ) ) ;
#778 = FACE_OUTER_BOUND ( 'NONE', #294, .T. ) ;
#779 = PLANE ( 'NONE',  #492 ) ;
#780 = EDGE_LOOP ( 'NONE', ( #489, #74, #730, #360, #259, #403, #1156, #406 ) ) ;
#781 = EDGE_CURVE ( 'NONE', #1200, #893, #813, .T. ) ;
#782 = CARTESIAN_POINT ( 'NONE',  ( -1.824999999999999956, 0.000000000000000000, 1.000000000000000000 ) ) ;
#783 = EDGE_CURVE ( 'NONE', #581, #671, #688, .T. ) ;
#784 = VERTEX_POINT ( 'NONE', #875 ) ;
#785 = DIRECTION ( 'NONE',  ( -5.754055326833201999E-07, 6.700323455120233663E-10, 0.9999999999998344657 ) ) ;
#786 = DIRECTION ( 'NONE',  ( 0.7071067811865475727, 0.7071067811865475727, 0.000000000000000000 ) ) ;
#787 = ORIENTED_EDGE ( 'NONE', *, *, #982, .T. ) ;
#788 = CARTESIAN_POINT ( 'NONE',  ( 3.378679656439999679, 4.000000000000000000, 5.049999999999999822 ) ) ;
#789 = AXIS2_PLACEMENT_3D ( 'NONE', #1214, #148, #17 ) ;
#790 = EDGE_CURVE ( 'NONE', #671, #947, #213, .T. ) ;
#791 = VERTEX_POINT ( 'NONE', #692 ) ;
#792 = CARTESIAN_POINT ( 'NONE',  ( -4.000000000000000000, -2.500000000000000000, 11.39999999999999858 ) ) ;
#793 = ORIENTED_EDGE ( 'NONE', *, *, #1145, .T. ) ;
#794 = CARTESIAN_POINT ( 'NONE',  ( -5.700004499721999629, -2.499999994407000159, 4.499721761632000019E-06 ) ) ;
#795 = ORIENTED_EDGE ( 'NONE', *, *, #710, .T. ) ;
#796 = DIRECTION ( 'NONE',  ( 0.000000000000000000, 0.000000000000000000, -1.000000000000000000 ) ) ;
#797 = ORIENTED_EDGE ( 'NONE', *, *, #85, .F. ) ;
#798 = LINE ( 'NONE', #519, #113 ) ;
#799 = CARTESIAN_POINT ( 'NONE',  ( 6.704163056033999091, -3.700000000000000178, 0.000000000000000000 ) ) ;
#800 = ADVANCED_FACE ( 'NONE', ( #989 ), #834, .F. ) ;
#801 = CARTESIAN_POINT ( 'NONE',  ( 8.141421356237001916, -2.262741699797000017, 0.000000000000000000 ) ) ;
#802 = CARTESIAN_POINT ( 'NONE',  ( 7.484924240492000003, 3.131370849897999964, 0.1499999999999999944 ) ) ;
#803 = VERTEX_POINT ( 'NONE', #799 ) ;
#804 = LINE ( 'NONE', #233, #91 ) ;
#805 = LINE ( 'NONE', #1202, #896 ) ;
#806 = CARTESIAN_POINT ( 'NONE',  ( 0.000000000000000000, 0.000000000000000000, 0.000000000000000000 ) ) ;
#807 = EDGE_CURVE ( 'NONE', #1246, #817, #396, .T. ) ;
#808 = DIRECTION ( 'NONE',  ( 0.000000000000000000, 0.000000000000000000, 1.000000000000000000 ) ) ;
#809 = DIRECTION ( 'NONE',  ( 0.5000000013987166980, 0.4999999986013168307, 0.7071067811865237029 ) ) ;
#810 = ORIENTED_EDGE ( 'NONE', *, *, #1009, .F. ) ;
#811 = LINE ( 'NONE', #21, #680 ) ;
#812 = CARTESIAN_POINT ( 'NONE',  ( 6.828427124745999777, 4.000000000000000000, 0.2999999999999999889 ) ) ;
#813 = CIRCLE ( 'NONE', #10, 3.499999999999998668 ) ;
#814 = DIRECTION ( 'NONE',  ( 0.000000000000000000, 0.000000000000000000, -1.000000000000000000 ) ) ;
#815 = VECTOR ( 'NONE', #194, 1000.000000000000114 ) ;
#816 = DIRECTION ( 'NONE',  ( -1.000000000000000000, 0.000000000000000000, 0.000000000000000000 ) ) ;
#817 = VERTEX_POINT ( 'NONE', #1094 ) ;
#818 = DIRECTION ( 'NONE',  ( 0.000000000000000000, 0.000000000000000000, -1.000000000000000000 ) ) ;
#819 = LINE ( 'NONE', #342, #775 ) ;
#820 = LINE ( 'NONE', #718, #437 ) ;
#821 = CARTESIAN_POINT ( 'NONE',  ( 0.000000000000000000, 0.000000000000000000, 1.000000000000000000 ) ) ;
#822 = ORIENTED_EDGE ( 'NONE', *, *, #763, .F. ) ;
#823 = DIRECTION ( 'NONE',  ( 0.7071067811777975720, -0.7071067811952975735, -1.239674925163995143E-11 ) ) ;
#824 = DIRECTION ( 'NONE',  ( 0.000000000000000000, 0.000000000000000000, -1.000000000000000000 ) ) ;
#825 = PLANE ( 'NONE',  #349 ) ;
#826 = DIRECTION ( 'NONE',  ( 0.4999999999999986122, 0.4999999999999986122, -0.7071067811865493491 ) ) ;
#827 = ORIENTED_EDGE ( 'NONE', *, *, #155, .T. ) ;
#828 = CARTESIAN_POINT ( 'NONE',  ( -1.824999999679000062, 6.713860684021000142E-12, 0.3000000003209999933 ) ) ;
#829 = PRESENTATION_STYLE_ASSIGNMENT (( #436 ) ) ;
#830 = CARTESIAN_POINT ( 'NONE',  ( -2.500000000000000000, 2.500000000000000000, 0.000000000000000000 ) ) ;
#831 = VECTOR ( 'NONE', #95, 1000.000000000000000 ) ;
#832 = EDGE_CURVE ( 'NONE', #68, #98, #1179, .T. ) ;
#833 = CARTESIAN_POINT ( 'NONE',  ( -5.498827560275999282, -3.747980083115999950, 0.04798008311647000007 ) ) ;
#834 = CONICAL_SURFACE ( 'NONE', #569, 1.974999999600000278, 0.7853981633972997312 ) ;
#835 = ORIENTED_EDGE ( 'NONE', *, *, #69, .F. ) ;
#836 = AXIS2_PLACEMENT_3D ( 'NONE', #1186, #808, #1016 ) ;
#837 = DIRECTION ( 'NONE',  ( 0.000000000000000000, 0.000000000000000000, 1.000000000000000000 ) ) ;
#838 = CARTESIAN_POINT ( 'NONE',  ( 6.828427124745999777, 4.000000000000000000, 5.049999999999999822 ) ) ;
#839 = DIRECTION ( 'NONE',  ( 0.000000000000000000, 0.000000000000000000, -1.000000000000000000 ) ) ;
#840 = VERTEX_POINT ( 'NONE', #1085 ) ;
#841 = LINE ( 'NONE', #368, #849 ) ;
#842 = CARTESIAN_POINT ( 'NONE',  ( -2.500000000000000000, 3.400000000000002576, 12.00000000000000000 ) ) ;
#843 = VERTEX_POINT ( 'NONE', #108 ) ;
#844 = EDGE_CURVE ( 'NONE', #581, #442, #977, .T. ) ;
#845 = EDGE_CURVE ( 'NONE', #377, #890, #501, .T. ) ;
#846 = CARTESIAN_POINT ( 'NONE',  ( 3.378679656439999679, -4.000000000000000000, 5.049999999999999822 ) ) ;
#847 = ORIENTED_EDGE ( 'NONE', *, *, #537, .T. ) ;
#848 = EDGE_CURVE ( 'NONE', #791, #1072, #410, .T. ) ;
#849 = VECTOR ( 'NONE', #446, 1000.000000000000000 ) ;
#850 = DIRECTION ( 'NONE',  ( 0.7071067811865474617, 0.7071067811865474617, -0.000000000000000000 ) ) ;
#851 = CONICAL_SURFACE ( 'NONE', #889, 0.9000000000000023537, 0.7853981633974450594 ) ;
#852 = CARTESIAN_POINT ( 'NONE',  ( 4.439339828219999617, -3.560660171780000383, 5.049999999999999822 ) ) ;
#853 = DIRECTION ( 'NONE',  ( 0.000000000000000000, 0.000000000000000000, -1.000000000000000000 ) ) ;
#854 = VERTEX_POINT ( 'NONE', #782 ) ;
#855 = PLANE ( 'NONE',  #468 ) ;
#856 = LINE ( 'NONE', #1248, #121 ) ;
#857 = VERTEX_POINT ( 'NONE', #1169 ) ;
#858 = ORIENTED_EDGE ( 'NONE', *, *, #591, .T. ) ;
#859 = DIRECTION ( 'NONE',  ( 0.000000000000000000, 0.7071067811865452413, 0.7071067811865497932 ) ) ;
#860 = DIRECTION ( 'NONE',  ( 0.000000000000000000, 0.000000000000000000, -1.000000000000000000 ) ) ;
#861 = EDGE_LOOP ( 'NONE', ( #629, #1180, #586, #578 ) ) ;
#862 = ORIENTED_EDGE ( 'NONE', *, *, #298, .T. ) ;
#863 = PLANE ( 'NONE',  #927 ) ;
#864 = CARTESIAN_POINT ( 'NONE',  ( 3.378679656439999679, 4.000000000000000000, 9.000000000000000000 ) ) ;
#865 = EDGE_LOOP ( 'NONE', ( #143, #1274, #279, #86 ) ) ;
#866 = CONICAL_SURFACE ( 'NONE', #367, 0.9000000000000023537, 0.7853981633974450594 ) ;
#867 = CARTESIAN_POINT ( 'NONE',  ( -2.500000000000000000, -2.500000000000000000, 0.2999999999999999889 ) ) ;
#868 = EDGE_CURVE ( 'NONE', #94, #751, #18, .T. ) ;
#869 = ORIENTED_EDGE ( 'NONE', *, *, #28, .T. ) ;
#870 = DIRECTION ( 'NONE',  ( 0.000000000000000000, 0.000000000000000000, -1.000000000000000000 ) ) ;
#871 = DIRECTION ( 'NONE',  ( 0.000000000000000000, 0.000000000000000000, -1.000000000000000000 ) ) ;
#872 = ORIENTED_EDGE ( 'NONE', *, *, #358, .F. ) ;
#873 = EDGE_CURVE ( 'NONE', #190, #1130, #220, .T. ) ;
#874 = AXIS2_PLACEMENT_3D ( 'NONE', #150, #814, #139 ) ;
#875 = CARTESIAN_POINT ( 'NONE',  ( 3.378679656439999679, -4.000000000000000000, 11.39999999999999858 ) ) ;
#876 = DIRECTION ( 'NONE',  ( 0.000000000000000000, 0.000000000000000000, 1.000000000000000000 ) ) ;
#877 = ORIENTED_EDGE ( 'NONE', *, *, #431, .F. ) ;
#878 = CARTESIAN_POINT ( 'NONE',  ( 5.878679656440000123, 0.000000000000000000, 12.00000000000000000 ) ) ;
#879 = VERTEX_POINT ( 'NONE', #1173 ) ;
#880 = CARTESIAN_POINT ( 'NONE',  ( -5.850000000000000533, 0.000000000000000000, 0.1499999999999999944 ) ) ;
#881 = EDGE_CURVE ( 'NONE', #1162, #767, #733, .T. ) ;
#882 = EDGE_CURVE ( 'NONE', #120, #817, #805, .T. ) ;
#883 = ORIENTED_EDGE ( 'NONE', *, *, #655, .T. ) ;
#884 = LINE ( 'NONE', #394, #1139 ) ;
#885 = ADVANCED_FACE ( 'NONE', ( #703 ), #36, .T. ) ;
#886 = ORIENTED_EDGE ( 'NONE', *, *, #337, .T. ) ;
#887 = DIRECTION ( 'NONE',  ( 0.2810846377148196185, 0.6785983445458472207, 0.6785983445458472207 ) ) ;
#888 = CONICAL_SURFACE ( 'NONE', #1239, 3.349999405246999906, 0.7853981633972997312 ) ;
#889 = AXIS2_PLACEMENT_3D ( 'NONE', #622, #818, #1026 ) ;
#890 = VERTEX_POINT ( 'NONE', #239 ) ;
#891 = CIRCLE ( 'NONE', #456, 1.500000000000000000 ) ;
#892 = DIRECTION ( 'NONE',  ( 0.000000000000000000, 0.000000000000000000, -1.000000000000000000 ) ) ;
#893 = VERTEX_POINT ( 'NONE', #138 ) ;
#894 = CARTESIAN_POINT ( 'NONE',  ( 6.828427124745999777, -4.000000000000000000, 0.2999999999999999889 ) ) ;
#895 = DIRECTION ( 'NONE',  ( 0.000000000000000000, 0.000000000000000000, -1.000000000000000000 ) ) ;
#896 = VECTOR ( 'NONE', #336, 999.9999999999998863 ) ;
#897 = VECTOR ( 'NONE', #615, 1000.000000000000000 ) ;
#898 = EDGE_CURVE ( 'NONE', #568, #15, #627, .T. ) ;
#899 = CARTESIAN_POINT ( 'NONE',  ( -6.000000000000000000, -2.500000000000000000, 5.049999999999999822 ) ) ;
#900 = CARTESIAN_POINT ( 'NONE',  ( -5.662277660168000715, 4.000000000000000000, 0.2999999999999999889 ) ) ;
#901 = EDGE_LOOP ( 'NONE', ( #654, #183, #275, #944 ) ) ;
#902 = CARTESIAN_POINT ( 'NONE',  ( 6.828427124745999777, 4.000000000000000000, 5.049999999999999822 ) ) ;
#903 = CARTESIAN_POINT ( 'NONE',  ( 4.439339828219999617, -3.560660171780000383, 11.39999999999999858 ) ) ;
#904 = CARTESIAN_POINT ( 'NONE',  ( 4.439339828219999617, 3.560660171780000383, 5.049999999999999822 ) ) ;
#905 = ORIENTED_EDGE ( 'NONE', *, *, #959, .T. ) ;
#906 = DIRECTION ( 'NONE',  ( 0.000000000000000000, 0.7071067811865452413, 0.7071067811865497932 ) ) ;
#907 = CARTESIAN_POINT ( 'NONE',  ( 3.378679656439999679, -2.500000000000000000, 5.049999999999999822 ) ) ;
#908 = MANIFOLD_SOLID_BREP ( '0002[1]', #1227 ) ;
#909 = CONICAL_SURFACE ( 'NONE', #562, 0.9000000000000023537, 0.7853981633974452814 ) ;
#910 = CARTESIAN_POINT ( 'NONE',  ( 4.015075759508072828, 3.136396103068072705, 12.00000000000000000 ) ) ;
#911 = DIRECTION ( 'NONE',  ( 0.000000000000000000, 0.000000000000000000, -1.000000000000000000 ) ) ;
#912 = ORIENTED_EDGE ( 'NONE', *, *, #371, .F. ) ;
#913 = DIRECTION ( 'NONE',  ( 0.000000000000000000, 0.000000000000000000, -1.000000000000000000 ) ) ;
#914 = SURFACE_STYLE_FILL_AREA ( #228 ) ;
#915 = DIRECTION ( 'NONE',  ( 0.000000000000000000, 0.000000000000000000, -1.000000000000000000 ) ) ;
#916 = ADVANCED_FACE ( 'NONE', ( #924 ), #1040, .F. ) ;
#917 = CARTESIAN_POINT ( 'NONE',  ( -2.500000000000000000, 4.000000000000000000, 11.39999999999999858 ) ) ;
#918 = ORIENTED_EDGE ( 'NONE', *, *, #299, .T. ) ;
#919 = FACE_OUTER_BOUND ( 'NONE', #590, .T. ) ;
#920 = LINE ( 'NONE', #1110, #640 ) ;
#921 = DIRECTION ( 'NONE',  ( -1.000000000000000000, 0.000000000000000000, 0.000000000000000000 ) ) ;
#922 = ORIENTED_EDGE ( 'NONE', *, *, #525, .T. ) ;
#923 = CARTESIAN_POINT ( 'NONE',  ( -2.500000000000000000, -4.000000000000000000, 5.049999999999999822 ) ) ;
#924 = FACE_OUTER_BOUND ( 'NONE', #1256, .T. ) ;
#925 = PLANE ( 'NONE',  #874 ) ;
#926 = DIRECTION ( 'NONE',  ( 0.5000000000000167644, -0.5000000000000168754, -0.7071067811865237029 ) ) ;
#927 = AXIS2_PLACEMENT_3D ( 'NONE', #685, #479, #495 ) ;
#928 = ORIENTED_EDGE ( 'NONE', *, *, #832, .F. ) ;
#929 = VECTOR ( 'NONE', #750, 1000.000000000000000 ) ;
#930 = DIRECTION ( 'NONE',  ( 0.000000000000000000, 0.000000000000000000, -1.000000000000000000 ) ) ;
#931 = DIRECTION ( 'NONE',  ( 1.000000000000000000, 0.000000000000000000, -0.000000000000000000 ) ) ;
#932 = EDGE_CURVE ( 'NONE', #65, #120, #1020, .T. ) ;
#933 = CARTESIAN_POINT ( 'NONE',  ( -2.500000000000000000, -4.000000000000000000, 5.049999999999999822 ) ) ;
#934 = VECTOR ( 'NONE', #1012, 1000.000000000000114 ) ;
#935 = AXIS2_PLACEMENT_3D ( 'NONE', #746, #262, #62 ) ;
#936 = ORIENTED_EDGE ( 'NONE', *, *, #1070, .T. ) ;
#937 = VECTOR ( 'NONE', #230, 1000.000000000000000 ) ;
#938 = CARTESIAN_POINT ( 'NONE',  ( 0.000000000000000000, 0.000000000000000000, 0.2999999999999999889 ) ) ;
#939 = CARTESIAN_POINT ( 'NONE',  ( -5.466479394838000161, 3.700000000000000178, 0.000000000000000000 ) ) ;
#940 = ORIENTED_EDGE ( 'NONE', *, *, #868, .T. ) ;
#941 = EDGE_CURVE ( 'NONE', #1039, #1043, #920, .T. ) ;
#942 =( GEOMETRIC_REPRESENTATION_CONTEXT ( 3 ) GLOBAL_UNCERTAINTY_ASSIGNED_CONTEXT ( ( #760 ) ) GLOBAL_UNIT_ASSIGNED_CONTEXT ( ( #1111, #146, #734 ) ) REPRESENTATION_CONTEXT ( 'NONE', 'WORKASPACE' ) );
#943 = DIRECTION ( 'NONE',  ( -0.000000000000000000, 0.7071067811865497932, -0.7071067811865452413 ) ) ;
#944 = ORIENTED_EDGE ( 'NONE', *, *, #655, .F. ) ;
#945 = CARTESIAN_POINT ( 'NONE',  ( 1.075735931288072322, -6.075735931288072322, 12.00000000000000000 ) ) ;
#946 = CARTESIAN_POINT ( 'NONE',  ( -5.700000000000000178, 2.500000000000000000, 0.000000000000000000 ) ) ;
#947 = VERTEX_POINT ( 'NONE', #520 ) ;
#948 = CARTESIAN_POINT ( 'NONE',  ( 0.000000000000000000, -1.824999999999999956, 0.2999999999999999889 ) ) ;
#949 = ORIENTED_EDGE ( 'NONE', *, *, #604, .F. ) ;
#950 = AXIS2_PLACEMENT_3D ( 'NONE', #105, #483, #201 ) ;
#951 = DIRECTION ( 'NONE',  ( 0.000000000000000000, 0.000000000000000000, -1.000000000000000000 ) ) ;
#952 = VECTOR ( 'NONE', #1041, 999.9999999999998863 ) ;
#953 = LINE ( 'NONE', #362, #1225 ) ;
#954 = ORIENTED_EDGE ( 'NONE', *, *, #642, .F. ) ;
#955 = DIRECTION ( 'NONE',  ( -0.7071067811865452413, 0.000000000000000000, -0.7071067811865497932 ) ) ;
#956 = ORIENTED_EDGE ( 'NONE', *, *, #959, .F. ) ;
#957 = VECTOR ( 'NONE', #311, 1000.000000000000000 ) ;
#958 = VECTOR ( 'NONE', #646, 1000.000000000000114 ) ;
#959 = EDGE_CURVE ( 'NONE', #68, #1130, #348, .T. ) ;
#960 = DIRECTION ( 'NONE',  ( 0.000000000000000000, 0.000000000000000000, -1.000000000000000000 ) ) ;
#961 = DIRECTION ( 'NONE',  ( -1.000000000000000000, 0.000000000000000000, 0.000000000000000000 ) ) ;
#962 = ORIENTED_EDGE ( 'NONE', *, *, #882, .T. ) ;
#963 = ORIENTED_EDGE ( 'NONE', *, *, #1070, .F. ) ;
#964 = DIRECTION ( 'NONE',  ( 0.000000000000000000, 0.000000000000000000, -1.000000000000000000 ) ) ;
#965 = ORIENTED_EDGE ( 'NONE', *, *, #298, .F. ) ;
#966 = CARTESIAN_POINT ( 'NONE',  ( 4.000000000000000000, 4.000000000000000000, 11.39999999999999858 ) ) ;
#967 = EDGE_CURVE ( 'NONE', #1108, #208, #509, .T. ) ;
#968 = FACE_OUTER_BOUND ( 'NONE', #608, .T. ) ;
#969 = EDGE_CURVE ( 'NONE', #791, #893, #350, .T. ) ;
#970 = ORIENTED_EDGE ( 'NONE', *, *, #682, .F. ) ;
#971 = ADVANCED_BREP_SHAPE_REPRESENTATION ( 'Manual Button_Taller', ( #908, #697 ), #942 ) ;
#972 = CARTESIAN_POINT ( 'NONE',  ( -3.400000000000002576, -2.500000000000000000, 12.00000000000000000 ) ) ;
#973 = CARTESIAN_POINT ( 'NONE',  ( 6.939339828220000506, -1.060660171779999938, 11.39999999999999858 ) ) ;
#974 = ORIENTED_EDGE ( 'NONE', *, *, #969, .F. ) ;
#975 = AXIS2_PLACEMENT_3D ( 'NONE', #1044, #66, #951 ) ;
#976 = DIRECTION ( 'NONE',  ( 0.4999999999999989453, 0.4999999999999977796, -0.7071067811865497932 ) ) ;
#977 = CIRCLE ( 'NONE', #728, 0.9000000000000023537 ) ;
#978 = VERTEX_POINT ( 'NONE', #812 ) ;
#979 = LINE ( 'NONE', #1166, #341 ) ;
#980 = DIRECTION ( 'NONE',  ( -1.005193589174000032E-11, -1.243042253911999927E-09, 1.000000000000000000 ) ) ;
#981 = EDGE_CURVE ( 'NONE', #192, #843, #669, .T. ) ;
#982 = EDGE_CURVE ( 'NONE', #1168, #551, #819, .T. ) ;
#983 = ORIENTED_EDGE ( 'NONE', *, *, #515, .F. ) ;
#984 = CARTESIAN_POINT ( 'NONE',  ( 1.824999999999999956, 0.000000000000000000, 0.2999999999999999889 ) ) ;
#985 = ADVANCED_FACE ( 'NONE', ( #1124 ), #286, .T. ) ;
#986 = VERTEX_POINT ( 'NONE', #462 ) ;
#987 = CYLINDRICAL_SURFACE ( 'NONE', #661, 1.500000000000000888 ) ;
#988 = ORIENTED_EDGE ( 'NONE', *, *, #807, .F. ) ;
#989 = FACE_OUTER_BOUND ( 'NONE', #761, .T. ) ;
#990 = ORIENTED_EDGE ( 'NONE', *, *, #1237, .T. ) ;
#991 = CARTESIAN_POINT ( 'NONE',  ( 3.378679656439999679, 2.500000000000000000, 20.73240000000000194 ) ) ;
#992 = FACE_OUTER_BOUND ( 'NONE', #612, .T. ) ;
#993 = ORIENTED_EDGE ( 'NONE', *, *, #748, .T. ) ;
#994 = ADVANCED_FACE ( 'NONE', ( #269 ), #653, .T. ) ;
#995 = DIRECTION ( 'NONE',  ( 2.335654275537105739E-07, 0.9999999999999453770, -2.335654278202105648E-07 ) ) ;
#996 = AXIS2_PLACEMENT_3D ( 'NONE', #711, #744, #61 ) ;
#997 = VECTOR ( 'NONE', #648, 1000.000000000000000 ) ;
#998 = CARTESIAN_POINT ( 'NONE',  ( 5.878679656440000123, 0.000000000000000000, 0.000000000000000000 ) ) ;
#999 = ORIENTED_EDGE ( 'NONE', *, *, #257, .T. ) ;
#1000 = DIRECTION ( 'NONE',  ( -1.000000000000000000, 0.000000000000000000, 0.000000000000000000 ) ) ;
#1001 = DIRECTION ( 'NONE',  ( 0.000000000000000000, -1.000000000000000000, 0.000000000000000000 ) ) ;
#1002 = AXIS2_PLACEMENT_3D ( 'NONE', #991, #892, #127 ) ;
#1003 = CARTESIAN_POINT ( 'NONE',  ( 3.378679656439999679, -2.500000000000000000, 20.73240000000000194 ) ) ;
#1004 = ORIENTED_EDGE ( 'NONE', *, *, #329, .F. ) ;
#1005 = LINE ( 'NONE', #716, #662 ) ;
#1006 = CARTESIAN_POINT ( 'NONE',  ( 0.000000000000000000, 0.000000000000000000, 0.000000000000000000 ) ) ;
#1007 = EDGE_CURVE ( 'NONE', #1072, #602, #170, .T. ) ;
#1008 = EDGE_CURVE ( 'NONE', #482, #890, #706, .T. ) ;
#1009 = EDGE_CURVE ( 'NONE', #986, #581, #458, .T. ) ;
#1010 = DIRECTION ( 'NONE',  ( 0.7071067811865474617, -0.7071067811865474617, 0.000000000000000000 ) ) ;
#1011 = ORIENTED_EDGE ( 'NONE', *, *, #701, .T. ) ;
#1012 = DIRECTION ( 'NONE',  ( -0.7071067811865474617, 8.743255432208581599E-12, 0.7071067811865474617 ) ) ;
#1013 = AXIS2_PLACEMENT_3D ( 'NONE', #219, #913, #1000 ) ;
#1014 = AXIS2_PLACEMENT_3D ( 'NONE', #1238, #943, #345 ) ;
#1015 = DIRECTION ( 'NONE',  ( -0.9270248108869638681, -0.3749999999999852895, 0.000000000000000000 ) ) ;
#1016 = DIRECTION ( 'NONE',  ( 1.000000000000000000, 0.000000000000000000, 0.000000000000000000 ) ) ;
#1017 = DIRECTION ( 'NONE',  ( -4.585322599910000210E-10, -9.591456920794999335E-12, -1.000000000000000000 ) ) ;
#1018 = ORIENTED_EDGE ( 'NONE', *, *, #1071, .F. ) ;
#1019 = ADVANCED_FACE ( 'NONE', ( #541 ), #369, .F. ) ;
#1020 = LINE ( 'NONE', #614, #1058 ) ;
#1021 = AXIS2_PLACEMENT_3D ( 'NONE', #802, #12, #596 ) ;
#1022 = CARTESIAN_POINT ( 'NONE',  ( -2.500000000000000000, -4.000000000000000000, 11.39999999999999858 ) ) ;
#1023 = AXIS2_PLACEMENT_3D ( 'NONE', #106, #1088, #1081 ) ;
#1024 = LINE ( 'NONE', #910, #287 ) ;
#1025 = ORIENTED_EDGE ( 'NONE', *, *, #881, .T. ) ;
#1026 = DIRECTION ( 'NONE',  ( -1.000000000000000000, 0.000000000000000000, 0.000000000000000000 ) ) ;
#1027 = SURFACE_SIDE_STYLE ('',( #914 ) ) ;
#1028 = CARTESIAN_POINT ( 'NONE',  ( 6.939339828220000506, -1.060660171779999938, 9.000000000000000000 ) ) ;
#1029 = ORIENTED_EDGE ( 'NONE', *, *, #781, .F. ) ;
#1030 = DIRECTION ( 'NONE',  ( -0.7071067811865474617, -0.7071067811865474617, 0.000000000000000000 ) ) ;
#1031 = DIRECTION ( 'NONE',  ( 0.000000000000000000, 0.000000000000000000, 1.000000000000000000 ) ) ;
#1032 = EDGE_CURVE ( 'NONE', #101, #671, #16, .T. ) ;
#1033 = FACE_OUTER_BOUND ( 'NONE', #777, .T. ) ;
#1034 = VECTOR ( 'NONE', #785, 1000.000000000000000 ) ;
#1035 = EDGE_CURVE ( 'NONE', #854, #657, #510, .T. ) ;
#1036 = ORIENTED_EDGE ( 'NONE', *, *, #332, .T. ) ;
#1037 = CARTESIAN_POINT ( 'NONE',  ( 8.353553387869999014, 2.474873736846999961, 0.2999999999792999361 ) ) ;
#1038 = DIRECTION ( 'NONE',  ( 0.000000000000000000, 0.000000000000000000, -1.000000000000000000 ) ) ;
#1039 = VERTEX_POINT ( 'NONE', #939 ) ;
#1040 = CONICAL_SURFACE ( 'NONE', #1198, 1.974999999600000278, 0.7853981633972997312 ) ;
#1041 = DIRECTION ( 'NONE',  ( 0.2810846377148196185, -0.6785983445458472207, 0.6785983445458472207 ) ) ;
#1042 = AXIS2_PLACEMENT_3D ( 'NONE', #717, #30, #921 ) ;
#1043 = VERTEX_POINT ( 'NONE', #161 ) ;
#1044 = CARTESIAN_POINT ( 'NONE',  ( 8.353553390592999506, -2.474873734152999827, 0.000000000000000000 ) ) ;
#1045 = DIRECTION ( 'NONE',  ( -1.000000000000000000, 0.000000000000000000, 0.000000000000000000 ) ) ;
#1046 = EDGE_LOOP ( 'NONE', ( #1115, #1249, #1155, #686 ) ) ;
#1047 = LINE ( 'NONE', #271, #302 ) ;
#1048 = ORIENTED_EDGE ( 'NONE', *, *, #1096, .T. ) ;
#1049 = LINE ( 'NONE', #1222, #382 ) ;
#1050 = DIRECTION ( 'NONE',  ( -1.000000000000000000, 0.000000000000000000, 0.000000000000000000 ) ) ;
#1051 = ORIENTED_EDGE ( 'NONE', *, *, #329, .T. ) ;
#1052 = CARTESIAN_POINT ( 'NONE',  ( 3.378679656439999679, -4.000000000000000000, 9.000000000000000000 ) ) ;
#1053 = ORIENTED_EDGE ( 'NONE', *, *, #1096, .F. ) ;
#1054 = AXIS2_PLACEMENT_3D ( 'NONE', #1062, #1175, #1171 ) ;
#1055 = DIRECTION ( 'NONE',  ( 1.000000000000000000, 0.000000000000000000, 0.000000000000000000 ) ) ;
#1056 = VECTOR ( 'NONE', #435, 1000.000000000000114 ) ;
#1057 = DIRECTION ( 'NONE',  ( -3.614221873729999965E-09, -5.939998257721999875E-09, -1.000000000000000000 ) ) ;
#1058 = VECTOR ( 'NONE', #1210, 1000.000000000000000 ) ;
#1059 = ORIENTED_EDGE ( 'NONE', *, *, #424, .T. ) ;
#1060 = AXIS2_PLACEMENT_3D ( 'NONE', #1006, #131, #123 ) ;
#1061 = AXIS2_PLACEMENT_3D ( 'NONE', #380, #631, #1045 ) ;
#1062 = CARTESIAN_POINT ( 'NONE',  ( -2.500000000000000000, 2.500000000000000000, 0.1500000451177000149 ) ) ;
#1063 = ORIENTED_EDGE ( 'NONE', *, *, #155, .F. ) ;
#1064 = ADVANCED_FACE ( 'NONE', ( #547 ), #739, .T. ) ;
#1065 = ORIENTED_EDGE ( 'NONE', *, *, #264, .F. ) ;
#1066 = CARTESIAN_POINT ( 'NONE',  ( -2.500000000000000000, -2.500000000000000000, 0.1499994052464999894 ) ) ;
#1067 = EDGE_LOOP ( 'NONE', ( #212, #689, #674, #339, #1053 ) ) ;
#1068 = CARTESIAN_POINT ( 'NONE',  ( 6.828427124745999777, 4.000000000000000000, 5.049999999999999822 ) ) ;
#1069 = PLANE ( 'NONE',  #55 ) ;
#1070 = EDGE_CURVE ( 'NONE', #49, #1200, #154, .T. ) ;
#1071 = EDGE_CURVE ( 'NONE', #773, #978, #554, .T. ) ;
#1072 = VERTEX_POINT ( 'NONE', #946 ) ;
#1073 = CARTESIAN_POINT ( 'NONE',  ( 6.515075759508071940, -0.6363961030680724829, 12.00000000000000000 ) ) ;
#1074 = ORIENTED_EDGE ( 'NONE', *, *, #198, .T. ) ;
#1075 = VECTOR ( 'NONE', #379, 1000.000000000000114 ) ;
#1076 = DIRECTION ( 'NONE',  ( -0.9035079029052711652, -0.4285714285713866367, 0.000000000000000000 ) ) ;
#1077 = DIRECTION ( 'NONE',  ( 0.000000000000000000, -1.000000000000000000, 0.000000000000000000 ) ) ;
#1078 = EDGE_CURVE ( 'NONE', #978, #413, #1253, .T. ) ;
#1079 = ORIENTED_EDGE ( 'NONE', *, *, #24, .T. ) ;
#1080 = DIRECTION ( 'NONE',  ( 0.7071067811865476838, 0.7071067811865473507, 0.000000000000000000 ) ) ;
#1081 = DIRECTION ( 'NONE',  ( -0.9035079029052711652, -0.4285714285713866367, 0.000000000000000000 ) ) ;
#1082 = CARTESIAN_POINT ( 'NONE',  ( -4.000000000000000000, 2.500000000000000000, 5.049999999999999822 ) ) ;
#1083 = UNCERTAINTY_MEASURE_WITH_UNIT (LENGTH_MEASURE( 1.000000000000000082E-05 ), #149, 'distance_accuracy_value', 'NONE');
#1084 = ORIENTED_EDGE ( 'NONE', *, *, #24, .F. ) ;
#1085 = CARTESIAN_POINT ( 'NONE',  ( -3.400000000000002576, -2.500000000000000000, 12.00000000000000000 ) ) ;
#1086 = ORIENTED_EDGE ( 'NONE', *, *, #157, .T. ) ;
#1087 = LINE ( 'NONE', #303, #1034 ) ;
#1088 = DIRECTION ( 'NONE',  ( 0.000000000000000000, 0.000000000000000000, -1.000000000000000000 ) ) ;
#1089 = ORIENTED_EDGE ( 'NONE', *, *, #97, .T. ) ;
#1090 = CARTESIAN_POINT ( 'NONE',  ( 4.015075759508072828, 3.136396103068072705, 12.00000000000000000 ) ) ;
#1091 = DIRECTION ( 'NONE',  ( 1.000000000000000000, 0.000000000000000000, 0.000000000000000000 ) ) ;
#1092 = ORIENTED_EDGE ( 'NONE', *, *, #737, .T. ) ;
#1093 = CARTESIAN_POINT ( 'NONE',  ( 3.378679656439999679, -3.400000000000002576, 12.00000000000000000 ) ) ;
#1094 = CARTESIAN_POINT ( 'NONE',  ( 6.828427124745999777, -4.000000000000000000, 0.2999999999999999889 ) ) ;
#1095 = DIRECTION ( 'NONE',  ( 0.000000000000000000, -1.000000000000000000, 0.000000000000000000 ) ) ;
#1096 = EDGE_CURVE ( 'NONE', #98, #190, #1104, .T. ) ;
#1097 = CIRCLE ( 'NONE', #218, 0.9000000000000019096 ) ;
#1098 = VECTOR ( 'NONE', #1017, 1000.000000000000000 ) ;
#1099 = DIRECTION ( 'NONE',  ( 0.000000000000000000, 0.000000000000000000, -1.000000000000000000 ) ) ;
#1100 = ORIENTED_EDGE ( 'NONE', *, *, #807, .T. ) ;
#1101 = EDGE_CURVE ( 'NONE', #986, #947, #953, .T. ) ;
#1102 = DIRECTION ( 'NONE',  ( 0.000000000000000000, 0.7071067811865475727, -0.7071067811865475727 ) ) ;
#1103 = CARTESIAN_POINT ( 'NONE',  ( 4.439339828219999617, -3.560660171780000383, 9.000000000000000000 ) ) ;
#1104 = CIRCLE ( 'NONE', #186, 1.824999999999999956 ) ;
#1105 = ADVANCED_FACE ( 'NONE', ( #356 ), #466, .T. ) ;
#1106 = CARTESIAN_POINT ( 'NONE',  ( 5.878679656440000123, 0.000000000000000000, 5.049999999999999822 ) ) ;
#1107 = DIRECTION ( 'NONE',  ( 0.000000000000000000, -1.000000000000000000, 0.000000000000000000 ) ) ;
#1108 = VERTEX_POINT ( 'NONE', #852 ) ;
#1109 = DIRECTION ( 'NONE',  ( -1.000000000000000000, 0.000000000000000000, 0.000000000000000000 ) ) ;
#1110 = CARTESIAN_POINT ( 'NONE',  ( -5.466479394838000161, 3.700000000000000178, 0.000000000000000000 ) ) ;
#1111 =( LENGTH_UNIT ( ) NAMED_UNIT ( * ) SI_UNIT ( .MILLI., .METRE. ) );
#1112 = EDGE_CURVE ( 'NONE', #857, #978, #856, .T. ) ;
#1113 = ADVANCED_FACE ( 'NONE', ( #274 ), #480, .T. ) ;
#1114 = DIRECTION ( 'NONE',  ( 0.7071067811865475727, -0.7071067811865475727, 0.000000000000000000 ) ) ;
#1115 = ORIENTED_EDGE ( 'NONE', *, *, #982, .F. ) ;
#1116 = CARTESIAN_POINT ( 'NONE',  ( -5.662277660168000715, 4.000000000000000000, 5.049999999999999822 ) ) ;
#1117 = DIRECTION ( 'NONE',  ( 0.000000000000000000, 0.000000000000000000, 1.000000000000000000 ) ) ;
#1118 = EDGE_CURVE ( 'NONE', #893, #6, #1273, .T. ) ;
#1119 = AXIS2_PLACEMENT_3D ( 'NONE', #1272, #82, #280 ) ;
#1120 = AXIS2_PLACEMENT_3D ( 'NONE', #340, #723, #1123 ) ;
#1121 = CARTESIAN_POINT ( 'NONE',  ( 3.378679656439999679, -2.500000000000000000, 11.39999999999999858 ) ) ;
#1122 = ORIENTED_EDGE ( 'NONE', *, *, #981, .F. ) ;
#1123 = DIRECTION ( 'NONE',  ( 0.000000000000000000, -1.000000000000000000, 0.000000000000000000 ) ) ;
#1124 = FACE_OUTER_BOUND ( 'NONE', #743, .T. ) ;
#1125 = FACE_OUTER_BOUND ( 'NONE', #128, .T. ) ;
#1126 = VECTOR ( 'NONE', #809, 999.9999999999998863 ) ;
#1127 = CIRCLE ( 'NONE', #392, 3.500000000000003109 ) ;
#1128 = DIRECTION ( 'NONE',  ( 0.000000000000000000, 0.000000000000000000, -1.000000000000000000 ) ) ;
#1129 = EDGE_CURVE ( 'NONE', #947, #754, #1259, .T. ) ;
#1130 = VERTEX_POINT ( 'NONE', #111 ) ;
#1131 = ADVANCED_FACE ( 'NONE', ( #772 ), #779, .T. ) ;
#1132 = CARTESIAN_POINT ( 'NONE',  ( 4.439339828219999617, -3.560660171780000383, 11.39999999999999858 ) ) ;
#1133 = CARTESIAN_POINT ( 'NONE',  ( -4.000000000000000000, -2.500000000000000000, 9.000000000000000000 ) ) ;
#1134 = DIRECTION ( 'NONE',  ( 0.000000000000000000, 0.000000000000000000, -1.000000000000000000 ) ) ;
#1135 = ORIENTED_EDGE ( 'NONE', *, *, #683, .T. ) ;
#1136 = CARTESIAN_POINT ( 'NONE',  ( -2.500000000000000000, -3.400000000000002576, 12.00000000000000000 ) ) ;
#1137 = CARTESIAN_POINT ( 'NONE',  ( 5.853553390592999506, 4.974873734153000271, 0.000000000000000000 ) ) ;
#1138 = CARTESIAN_POINT ( 'NONE',  ( -4.000000000000000000, -4.000000000000000000, 11.39999999999999858 ) ) ;
#1139 = VECTOR ( 'NONE', #859, 1000.000000000000000 ) ;
#1140 = ORIENTED_EDGE ( 'NONE', *, *, #1009, .T. ) ;
#1141 = LINE ( 'NONE', #923, #405 ) ;
#1142 = DIRECTION ( 'NONE',  ( 1.000000000000000000, 0.000000000000000000, 0.000000000000000000 ) ) ;
#1143 = ORIENTED_EDGE ( 'NONE', *, *, #70, .F. ) ;
#1144 = CARTESIAN_POINT ( 'NONE',  ( 7.484924240492000003, -3.131370849897999964, 0.1499999999999999944 ) ) ;
#1145 = EDGE_CURVE ( 'NONE', #49, #6, #546, .T. ) ;
#1146 = AXIS2_PLACEMENT_3D ( 'NONE', #182, #961, #83 ) ;
#1147 = ORIENTED_EDGE ( 'NONE', *, *, #873, .T. ) ;
#1148 = CARTESIAN_POINT ( 'NONE',  ( -2.500000000000000000, 4.000000000000000000, 5.049999999999999822 ) ) ;
#1149 = DIRECTION ( 'NONE',  ( 0.000000000000000000, 0.7071067811865452413, -0.7071067811865497932 ) ) ;
#1150 = EDGE_LOOP ( 'NONE', ( #970, #1084, #478, #634, #883, #162, #503, #416, #1174, #59 ) ) ;
#1151 = CARTESIAN_POINT ( 'NONE',  ( 4.015075759507894304, -3.136396103067895069, 12.00000000000000000 ) ) ;
#1152 = ORIENTED_EDGE ( 'NONE', *, *, #222, .F. ) ;
#1153 = FACE_OUTER_BOUND ( 'NONE', #1254, .T. ) ;
#1154 = DIRECTION ( 'NONE',  ( 0.9999999999999998890, 1.313349061910999862E-12, -8.069308004624998319E-09 ) ) ;
#1155 = ORIENTED_EDGE ( 'NONE', *, *, #868, .F. ) ;
#1156 = ORIENTED_EDGE ( 'NONE', *, *, #1145, .F. ) ;
#1157 = CIRCLE ( 'NONE', #745, 1.500000000000000000 ) ;
#1158 = CARTESIAN_POINT ( 'NONE',  ( 8.141421352258999988, -2.262741703710000607, -4.571202675644000011E-11 ) ) ;
#1159 = VECTOR ( 'NONE', #556, 1000.000000000000000 ) ;
#1160 = DIRECTION ( 'NONE',  ( -1.000000000000000000, 0.000000000000000000, 0.000000000000000000 ) ) ;
#1161 = ORIENTED_EDGE ( 'NONE', *, *, #1118, .F. ) ;
#1162 = VERTEX_POINT ( 'NONE', #5 ) ;
#1163 = VECTOR ( 'NONE', #995, 1000.000000000000114 ) ;
#1164 = AXIS2_PLACEMENT_3D ( 'NONE', #13, #415, #1160 ) ;
#1165 = EDGE_CURVE ( 'NONE', #192, #695, #677, .T. ) ;
#1166 = CARTESIAN_POINT ( 'NONE',  ( 6.939339828220000506, 1.060660171779999938, 9.000000000000000000 ) ) ;
#1167 = CYLINDRICAL_SURFACE ( 'NONE', #670, 1.500000000000000000 ) ;
#1168 = VERTEX_POINT ( 'NONE', #973 ) ;
#1169 = CARTESIAN_POINT ( 'NONE',  ( -5.662277660168000715, 4.000000000000000000, 0.2999999999999999889 ) ) ;
#1170 = ORIENTED_EDGE ( 'NONE', *, *, #783, .F. ) ;
#1171 = DIRECTION ( 'NONE',  ( 0.000000000000000000, -1.000000000000000000, 0.000000000000000000 ) ) ;
#1172 = EDGE_LOOP ( 'NONE', ( #584, #327, #3, #1122 ) ) ;
#1173 = CARTESIAN_POINT ( 'NONE',  ( -5.466479394838000161, -3.700000000000000178, 0.000000000000000000 ) ) ;
#1174 = ORIENTED_EDGE ( 'NONE', *, *, #967, .T. ) ;
#1175 = DIRECTION ( 'NONE',  ( 0.000000000000000000, 0.000000000000000000, 1.000000000000000000 ) ) ;
#1176 = ORIENTED_EDGE ( 'NONE', *, *, #1101, .T. ) ;
#1177 = CIRCLE ( 'NONE', #238, 1.824999999999999956 ) ;
#1178 = VECTOR ( 'NONE', #335, 1000.000000000000000 ) ;
#1179 = LINE ( 'NONE', #776, #244 ) ;
#1180 = ORIENTED_EDGE ( 'NONE', *, *, #443, .T. ) ;
#1181 = FACE_OUTER_BOUND ( 'NONE', #1046, .T. ) ;
#1182 = CARTESIAN_POINT ( 'NONE',  ( 6.939339828220000506, 1.060660171779999938, 5.049999999999999822 ) ) ;
#1183 = ORIENTED_EDGE ( 'NONE', *, *, #781, .T. ) ;
#1184 = AXIS2_PLACEMENT_3D ( 'NONE', #45, #447, #567 ) ;
#1185 = DIRECTION ( 'NONE',  ( 0.000000000000000000, 0.000000000000000000, -1.000000000000000000 ) ) ;
#1186 = CARTESIAN_POINT ( 'NONE',  ( 3.378679656439999679, -2.500000000000000000, 12.00000000000000000 ) ) ;
#1187 = DIRECTION ( 'NONE',  ( 1.000000000000000000, 0.000000000000000000, 0.000000000000000000 ) ) ;
#1188 = ORIENTED_EDGE ( 'NONE', *, *, #845, .F. ) ;
#1189 = CARTESIAN_POINT ( 'NONE',  ( 0.000000000000000000, 0.000000000000000000, 0.000000000000000000 ) ) ;
#1190 = DIRECTION ( 'NONE',  ( 1.000000000000000000, 0.000000000000000000, 0.000000000000000000 ) ) ;
#1191 = CARTESIAN_POINT ( 'NONE',  ( -2.125000000000000000, 0.000000000000000000, 0.000000000000000000 ) ) ;
#1192 = ADVANCED_FACE ( 'NONE', ( #992 ), #281, .F. ) ;
#1193 = CARTESIAN_POINT ( 'NONE',  ( 6.828427124745999777, 4.000000000000000000, 5.049999999999999822 ) ) ;
#1194 = ORIENTED_EDGE ( 'NONE', *, *, #701, .F. ) ;
#1195 = DIRECTION ( 'NONE',  ( 1.000000000000000000, 0.000000000000000000, 0.000000000000000000 ) ) ;
#1196 = EDGE_CURVE ( 'NONE', #81, #551, #667, .T. ) ;
#1197 = AXIS2_PLACEMENT_3D ( 'NONE', #945, #465, #850 ) ;
#1198 = AXIS2_PLACEMENT_3D ( 'NONE', #423, #324, #1001 ) ;
#1199 = CARTESIAN_POINT ( 'NONE',  ( 0.000000000000000000, 0.000000000000000000, 0.000000000000000000 ) ) ;
#1200 = VERTEX_POINT ( 'NONE', #88 ) ;
#1201 = FACE_OUTER_BOUND ( 'NONE', #597, .T. ) ;
#1202 = CARTESIAN_POINT ( 'NONE',  ( 8.353553387329998969, -2.474873737363000092, 0.2999999999624999858 ) ) ;
#1203 = LINE ( 'NONE', #430, #729 ) ;
#1204 = ADVANCED_FACE ( 'NONE', ( #386 ), #1167, .T. ) ;
#1205 = ADVANCED_FACE ( 'NONE', ( #115 ), #1069, .T. ) ;
#1206 = CARTESIAN_POINT ( 'NONE',  ( 3.378679656439999679, 2.500000000000000000, 5.049999999999999822 ) ) ;
#1207 = EDGE_LOOP ( 'NONE', ( #963, #793, #1161, #1029 ) ) ;
#1208 = ADVANCED_FACE ( 'NONE', ( #318 ), #925, .F. ) ;
#1209 = LINE ( 'NONE', #1116, #1178 ) ;
#1210 = DIRECTION ( 'NONE',  ( 0.5000000016711168005, -0.4999999983289167838, 0.7071067811865237029 ) ) ;
#1211 = DIRECTION ( 'NONE',  ( 0.000000000000000000, 0.000000000000000000, 1.000000000000000000 ) ) ;
#1212 = DIRECTION ( 'NONE',  ( 0.7071067811865475727, 0.7071067811865474617, 0.000000000000000000 ) ) ;
#1213 = VERTEX_POINT ( 'NONE', #1022 ) ;
#1214 = CARTESIAN_POINT ( 'NONE',  ( -2.500000000000000000, 2.500000000000000000, 0.000000000000000000 ) ) ;
#1215 = CARTESIAN_POINT ( 'NONE',  ( 0.5830747322889000550, 3.850000000000000089, 0.1499999999999999944 ) ) ;
#1216 = PRODUCT_CONTEXT ( 'NONE', #235, 'mechanical' ) ;
#1217 = VECTOR ( 'NONE', #122, 1000.000000000000000 ) ;
#1218 = CYLINDRICAL_SURFACE ( 'NONE', #8, 3.500000000000000000 ) ;
#1219 = LINE ( 'NONE', #529, #937 ) ;
#1220 = ORIENTED_EDGE ( 'NONE', *, *, #1250, .T. ) ;
#1221 = CIRCLE ( 'NONE', #344, 0.9000000000000023537 ) ;
#1222 = CARTESIAN_POINT ( 'NONE',  ( -6.000000000000000000, -2.500000000000000000, 5.049999999999999822 ) ) ;
#1223 = DIRECTION ( 'NONE',  ( 0.7071067811865474617, -0.7071067811865474617, 0.000000000000000000 ) ) ;
#1224 = VECTOR ( 'NONE', #712, 1000.000000000000114 ) ;
#1225 = VECTOR ( 'NONE', #1149, 1000.000000000000000 ) ;
#1226 = CARTESIAN_POINT ( 'NONE',  ( -5.563823785437000069, -3.845955011910999755, 0.1459549846134000073 ) ) ;
#1227 = CLOSED_SHELL ( 'NONE', ( #800, #383, #650, #1192, #916, #493, #102, #579, #749, #1113, #397, #1064, #617, #610, #561, #1131, #632, #1105, #639, #885, #439, #284, #577, #1262, #291, #207, #402, #172, #549, #1205, #1208, #741, #1204, #994, #527, #352, #486, #1233, #217, #1019, #168, #609, #985, #516 ) ) ;
#1228 = EDGE_LOOP ( 'NONE', ( #822, #373, #1092, #301 ) ) ;
#1229 = CARTESIAN_POINT ( 'NONE',  ( 4.000000000000000000, -4.000000000000000000, 11.39999999999999858 ) ) ;
#1230 = DIRECTION ( 'NONE',  ( 0.000000000000000000, 0.000000000000000000, 1.000000000000000000 ) ) ;
#1231 = CARTESIAN_POINT ( 'NONE',  ( -4.000000000000000000, 2.500000000000000000, 5.049999999999999822 ) ) ;
#1232 = ORIENTED_EDGE ( 'NONE', *, *, #337, .F. ) ;
#1233 = ADVANCED_FACE ( 'NONE', ( #1125 ), #328, .T. ) ;
#1234 = CARTESIAN_POINT ( 'NONE',  ( 6.704163056033999091, -3.700000000000000178, 0.000000000000000000 ) ) ;
#1235 = CARTESIAN_POINT ( 'NONE',  ( -2.500000000000000000, 2.500000000000000000, 20.73240000000000194 ) ) ;
#1236 = ORIENTED_EDGE ( 'NONE', *, *, #898, .F. ) ;
#1237 = EDGE_CURVE ( 'NONE', #387, #1108, #343, .T. ) ;
#1238 = CARTESIAN_POINT ( 'NONE',  ( -2.500000000000000000, -3.400000000000002576, 12.00000000000000000 ) ) ;
#1239 = AXIS2_PLACEMENT_3D ( 'NONE', #1066, #488, #1267 ) ;
#1240 = EDGE_LOOP ( 'NONE', ( #78, #675, #1086, #112 ) ) ;
#1241 = CARTESIAN_POINT ( 'NONE',  ( -4.000000000000000000, 4.000000000000000000, 0.000000000000000000 ) ) ;
#1242 = DIRECTION ( 'NONE',  ( -1.000000000000000000, 0.000000000000000000, 0.000000000000000000 ) ) ;
#1243 = ORIENTED_EDGE ( 'NONE', *, *, #604, .T. ) ;
#1244 = EDGE_CURVE ( 'NONE', #1072, #1039, #1266, .T. ) ;
#1245 = CARTESIAN_POINT ( 'NONE',  ( -5.466479394838000161, -3.700000000000000178, 0.000000000000000000 ) ) ;
#1246 = VERTEX_POINT ( 'NONE', #41 ) ;
#1247 = FACE_OUTER_BOUND ( 'NONE', #135, .T. ) ;
#1248 = CARTESIAN_POINT ( 'NONE',  ( -5.662277660158000714, 3.999999999983999910, 0.3000001007913000173 ) ) ;
#1249 = ORIENTED_EDGE ( 'NONE', *, *, #755, .F. ) ;
#1250 = EDGE_CURVE ( 'NONE', #270, #751, #1203, .T. ) ;
#1251 = ORIENTED_EDGE ( 'NONE', *, *, #440, .T. ) ;
#1252 = FACE_OUTER_BOUND ( 'NONE', #1172, .T. ) ;
#1253 = LINE ( 'NONE', #637, #265 ) ;
#1254 = EDGE_LOOP ( 'NONE', ( #638, #399, #304, #954, #63, #282, #267, #1188 ) ) ;
#1255 = EDGE_CURVE ( 'NONE', #387, #81, #331, .T. ) ;
#1256 = EDGE_LOOP ( 'NONE', ( #1025, #869, #928, #321 ) ) ;
#1257 = CARTESIAN_POINT ( 'NONE',  ( -6.000000000000000000, 2.500000000000000000, 0.2999999999999999889 ) ) ;
#1258 = VECTOR ( 'NONE', #151, 1000.000000000000000 ) ;
#1259 = LINE ( 'NONE', #864, #412 ) ;
#1260 = DIRECTION ( 'NONE',  ( 1.000000000000000000, -8.673617379884035472E-16, 0.000000000000000000 ) ) ;
#1261 = ORIENTED_EDGE ( 'NONE', *, *, #2, .T. ) ;
#1262 = ADVANCED_FACE ( 'NONE', ( #46, #448 ), #825, .F. ) ;
#1263 = DIRECTION ( 'NONE',  ( 0.000000000000000000, 0.000000000000000000, 1.000000000000000000 ) ) ;
#1264 = CIRCLE ( 'NONE', #224, 1.824999999999999956 ) ;
#1265 = EDGE_LOOP ( 'NONE', ( #1176, #288, #1170, #810 ) ) ;
#1266 = CIRCLE ( 'NONE', #570, 3.200000000000000178 ) ;
#1267 = DIRECTION ( 'NONE',  ( 0.000000000000000000, -1.000000000000000000, 0.000000000000000000 ) ) ;
#1268 = ORIENTED_EDGE ( 'NONE', *, *, #1237, .F. ) ;
#1269 = AXIS2_PLACEMENT_3D ( 'NONE', #319, #698, #1015 ) ;
#1270 = DIRECTION ( 'NONE',  ( 0.000000000000000000, 0.000000000000000000, -1.000000000000000000 ) ) ;
#1271 = ORIENTED_EDGE ( 'NONE', *, *, #129, .F. ) ;
#1272 = CARTESIAN_POINT ( 'NONE',  ( 0.000000000000000000, 0.000000000000000000, 0.000000000000000000 ) ) ;
#1273 = LINE ( 'NONE', #401, #163 ) ;
#1274 = ORIENTED_EDGE ( 'NONE', *, *, #293, .T. ) ;
ENDSEC;
END-ISO-10303-21;
